<svg width="126" height="18" viewBox="0 0 126 18" fill="none" xmlns="http://www.w3.org/2000/svg">
    <path d="M52.9254 18C50.2498 18 48.1724 17.1123 46.6934 15.337C45.2309 13.5616 44.7157 11.3671 45.1478 8.75342C45.5633 6.20548 46.7349 4.10959 48.6627 2.46575C50.6071 0.821918 52.8672 0 55.4432 0C57.1549 0 58.609 0.369863 59.8056 1.10959C61.0188 1.83288 61.9411 2.83562 62.5726 4.11781L58.4844 6.26301C57.8196 4.96438 56.6646 4.31507 55.0194 4.31507C53.6566 4.31507 52.4684 4.75069 51.4546 5.62192C50.4575 6.47671 49.8343 7.60274 49.585 9C49.3524 10.3644 49.5684 11.4904 50.2332 12.3781C50.8979 13.2493 51.895 13.6849 53.2245 13.6849C54.903 13.6849 56.2658 12.9945 57.3128 11.6137L60.9772 13.9562C60.0466 15.2384 58.8749 16.2329 57.4623 16.9397C56.0664 17.6466 54.554 18 52.9254 18Z" fill="white"/>
    <path d="M72.5939 17.6301L72.3197 15.1397H66.5115L65.3149 17.6301H60.4041L69.2286 0.369863H74.663L77.3552 17.6301H72.5939ZM68.3561 11.3425H71.8959L71.2478 5.37534L68.3561 11.3425Z" fill="white"/>
    <path d="M93.905 6.58356C93.7056 7.68493 93.2735 8.64658 92.6087 9.46849C91.9606 10.2904 91.1296 10.9233 90.1159 11.3671L92.509 17.6301H88.0219L85.9778 12.0575H84.0833L83.0862 17.6301H78.624L81.7151 0.369863H88.5454C90.2738 0.369863 91.6781 0.978082 92.7583 2.19452C93.8385 3.41096 94.2207 4.87397 93.905 6.58356ZM85.4294 4.43836L84.7314 8.30959H87.299C87.8474 8.32603 88.3128 8.15342 88.695 7.79178C89.0938 7.43014 89.3431 6.96164 89.4428 6.3863C89.5426 5.81096 89.4428 5.34247 89.1437 4.98082C88.8612 4.61918 88.4208 4.43836 87.8225 4.43836H85.4294Z" fill="white"/>
    <path d="M104.253 0.369863C106.546 0.369863 108.383 1.2411 109.762 2.98356C111.142 4.72603 111.615 6.8137 111.183 9.24658C110.734 11.7123 109.596 13.726 107.768 15.2877C105.94 16.8493 103.746 17.6301 101.187 17.6301H94.0824L97.1486 0.369863H104.253ZM106.846 8.92603C107.062 7.6274 106.862 6.59178 106.247 5.81918C105.632 5.03014 104.718 4.63562 103.505 4.63562H100.988L99.417 13.3644H101.81C103.073 13.3644 104.162 12.9616 105.076 12.1562C106.006 11.3342 106.596 10.2575 106.846 8.92603Z" fill="white"/>
    <path d="M117.774 18C115.912 18 114.408 17.6219 113.262 16.8658C112.115 16.0932 111.359 15.0411 110.993 13.7096L114.957 11.6877C115.422 13.1178 116.486 13.8329 118.148 13.8329C119.51 13.8329 120.267 13.4384 120.416 12.6493C120.516 12.1068 120.134 11.6548 119.269 11.2932C119.136 11.2274 118.53 11.0137 117.45 10.6521C115.921 10.1425 114.766 9.45206 113.985 8.58082C113.204 7.70959 112.946 6.51781 113.212 5.00548C113.494 3.4274 114.251 2.20274 115.48 1.33151C116.727 0.443836 118.197 0 119.893 0C121.355 0 122.61 0.345205 123.657 1.03562C124.72 1.70959 125.501 2.67945 126 3.94521L122.186 5.96712C121.638 4.76712 120.757 4.16712 119.544 4.16712C118.497 4.16712 117.898 4.53699 117.749 5.27671C117.649 5.68767 117.799 6.03288 118.197 6.31233C118.596 6.57534 119.344 6.89589 120.441 7.27397C121.205 7.53699 121.829 7.78356 122.311 8.0137C122.793 8.24384 123.291 8.58082 123.806 9.02466C124.338 9.45206 124.695 10.0027 124.878 10.6767C125.061 11.3342 125.078 12.1151 124.928 13.0192C124.629 14.6466 123.848 15.8877 122.585 16.7425C121.322 17.5808 119.718 18 117.774 18Z" fill="white"/>
    <path fill-rule="evenodd" clip-rule="evenodd" d="M43 0H9.76923L7 18H40.2308L43 0ZM22.9333 14.0677C21.6594 14.0677 20.7317 13.5831 20.1502 12.6138C19.5687 11.6446 19.4164 10.3938 19.6933 8.86154C19.961 7.32 20.5102 6.11538 21.341 5.24769C22.181 4.37077 23.261 3.93231 24.581 3.93231C25.8456 3.93231 26.7687 4.41692 27.3502 5.38615C27.9317 6.35538 28.0887 7.60615 27.821 9.13846C27.544 10.6892 26.9902 11.8985 26.1594 12.7662C25.3379 13.6338 24.2625 14.0677 22.9333 14.0677ZM22.4487 9C22.1625 10.5877 22.4579 11.3815 23.3348 11.3815C24.2117 11.3815 24.7933 10.5877 25.0794 9C25.3471 7.41231 25.0471 6.61846 24.1794 6.61846C23.2933 6.61846 22.7164 7.41231 22.4487 9ZM17.0662 4.15384H19.42L17.717 13.8462H14.9477L16.1108 7.18615L14.3939 7.58769L14.1585 5.13692L17.0662 4.15384ZM28.8717 12.6138C29.4532 13.5831 30.3809 14.0677 31.6547 14.0677C32.984 14.0677 34.0593 13.6338 34.8809 12.7662C35.7117 11.8985 36.2655 10.6892 36.5424 9.13846C36.8101 7.60615 36.6532 6.35538 36.0717 5.38615C35.4901 4.41692 34.567 3.93231 33.3024 3.93231C31.9824 3.93231 30.9024 4.37077 30.0624 5.24769C29.2317 6.11538 28.6824 7.32 28.4147 8.86154C28.1378 10.3938 28.2901 11.6446 28.8717 12.6138ZM32.0563 11.3815C31.1793 11.3815 30.884 10.5877 31.1701 9C31.4378 7.41231 32.0147 6.61846 32.9009 6.61846C33.7686 6.61846 34.0686 7.41231 33.8009 9C33.5147 10.5877 32.9332 11.3815 32.0563 11.3815Z" fill="#FF6537"/>
    <path d="M5.76923 0H8L5.23077 18H3L5.76923 0Z" fill="#FF6537"/>
    <path d="M2.76923 0H4L1.23077 18H0L2.76923 0Z" fill="#FF6537"/>
</svg>
