<svg width="24" height="24" viewBox="0 0 24 24" fill="none" xmlns="http://www.w3.org/2000/svg">
<circle cx="12" cy="12" r="12" fill="#6ADFBE"/>
<path d="M8.55699 16.9112V9.20957L9.43889 9.67464V16.9165L8.55699 16.9112ZM11.5676 18.5854V10.945L12.4495 10.9609V18.5854H11.5676ZM6 15.5239V8.52126L6.88696 8.07745V15.3193L6 15.5239ZM11.8407 11.7874L6.10897 8.90661L7.14038 8.4123L12.2233 10.9529L11.8432 11.7874H11.8407ZM17.5565 9.31321L11.6563 5.8451L12.0086 5L17.988 8.50532L17.5591 9.31321H17.5565ZM12.039 19L6 15.5399L6.42828 14.7313L12.4229 18.1682L12.039 19ZM6.68676 9.17768L6 8.52126L12.0086 5.01595L12.428 5.84444L6.68676 9.17768ZM17.1175 15.4894V8.82688L17.9994 8.50797V15.492L17.1175 15.4894ZM12.0656 15.5432L11.6601 14.722L17.3506 11.6339L17.7561 12.4558L12.0656 15.5458V15.5432ZM11.8755 11.9209L11.4954 11.0865L17.324 8.1492L17.7041 8.98367L11.8755 11.9209ZM12.0396 18.9973L11.6538 18.1649L17.4235 14.7585L18 15.4734L12.0396 18.9947V18.9973Z" fill="white"/>
</svg>
