<svg width="135" height="40" viewBox="0 0 135 40" fill="none" xmlns="http://www.w3.org/2000/svg">
<path d="M134.032 35.268C134.032 37.384 132.318 39.098 130.198 39.098H4.72901C2.61001 39.098 0.890015 37.384 0.890015 35.268V4.72501C0.890015 2.61001 2.61001 0.890015 4.72901 0.890015H130.197C132.318 0.890015 134.031 2.61001 134.031 4.72501L134.032 35.268Z" fill="black"/>
<path d="M30.128 19.784C30.099 16.561 32.767 14.993 32.889 14.92C31.378 12.717 29.036 12.416 28.213 12.392C26.246 12.185 24.338 13.569 23.336 13.569C22.314 13.569 20.771 12.412 19.108 12.446C16.968 12.479 14.966 13.718 13.868 15.642C11.602 19.565 13.292 25.33 15.463 28.501C16.549 30.054 17.818 31.788 19.479 31.727C21.104 31.66 21.711 30.691 23.672 30.691C25.615 30.691 26.185 31.727 27.879 31.688C29.623 31.66 30.721 30.128 31.769 28.561C33.024 26.781 33.528 25.028 33.548 24.938C33.507 24.924 30.161 23.647 30.128 19.784Z" fill="white"/>
<path d="M26.928 10.306C27.802 9.21304 28.4 7.72604 28.234 6.21704C26.969 6.27304 25.387 7.09204 24.476 8.16104C23.67 9.10304 22.95 10.647 23.136 12.099C24.557 12.205 26.016 11.382 26.928 10.306Z" fill="white"/>
<path d="M47.4841 25.1641C49.6647 25.1641 51.1276 24.0771 51.5788 22.1289H50.3347C49.9792 23.332 48.9401 24.0293 47.4909 24.0293C45.5427 24.0293 44.3054 22.4844 44.3054 20.0645C44.3054 17.665 45.5563 16.1064 47.4841 16.1064C48.8923 16.1064 50.0202 16.9541 50.3347 18.2461H51.5788C51.2643 16.2773 49.6306 14.9717 47.4841 14.9717C44.7839 14.9717 43.0407 16.9678 43.0407 20.0645C43.0407 23.1885 44.7634 25.1641 47.4841 25.1641ZM56.0353 25.123C57.9972 25.123 59.3234 23.708 59.3234 21.4453C59.3234 19.1758 57.9972 17.7676 56.0353 17.7676C54.0666 17.7676 52.7404 19.1758 52.7404 21.4453C52.7404 23.708 54.0666 25.123 56.0353 25.123ZM56.0353 24.0771C54.7775 24.0771 53.9503 23.1201 53.9503 21.4453C53.9503 19.7705 54.7775 18.8135 56.0353 18.8135C57.2931 18.8135 58.1134 19.7705 58.1134 21.4453C58.1134 23.1201 57.2931 24.0771 56.0353 24.0771ZM60.7652 25H61.9547V20.543C61.9547 19.5586 62.6383 18.8203 63.5817 18.8203C64.4635 18.8203 65.0377 19.3809 65.0377 20.2354V25H66.2272V20.4814C66.2272 19.5176 66.8902 18.8203 67.8336 18.8203C68.7701 18.8203 69.3102 19.3945 69.3102 20.3652V25H70.4996V20.0918C70.4996 18.6836 69.5904 17.7676 68.1822 17.7676C67.1842 17.7676 66.3502 18.2734 65.9537 19.1211H65.9264C65.6188 18.2598 64.901 17.7676 63.9303 17.7676C62.9733 17.7676 62.2486 18.2734 61.9137 19.0254H61.8863V17.8906H60.7652V25ZM72.3175 25H73.5069V17.8906H72.3175V25ZM72.9122 16.6943C73.3223 16.6943 73.6573 16.3594 73.6573 15.9561C73.6573 15.5459 73.3223 15.2178 72.9122 15.2178C72.5089 15.2178 72.1739 15.5459 72.1739 15.9561C72.1739 16.3594 72.5089 16.6943 72.9122 16.6943ZM75.3521 25H76.5415V20.8164C76.5415 19.6133 77.273 18.8203 78.3941 18.8203C79.4878 18.8203 80.0279 19.4492 80.0279 20.5977V25H81.2173V20.3857C81.2173 18.7725 80.315 17.7676 78.7564 17.7676C77.6558 17.7676 76.897 18.2598 76.5005 19.0254H76.4732V17.8906H75.3521V25ZM85.8652 24.0088C84.6416 24.0088 83.8418 23.0107 83.8418 21.418C83.8418 19.8252 84.6416 18.8135 85.8652 18.8135C87.1025 18.8135 87.9297 19.8525 87.9297 21.418C87.9297 22.9834 87.1025 24.0088 85.8652 24.0088ZM85.9062 27.6797C87.8682 27.6797 89.1191 26.5518 89.1191 24.8564V17.8906H87.9844V19.0869H87.9639C87.4922 18.2598 86.6582 17.7676 85.6533 17.7676C83.8145 17.7676 82.625 19.1895 82.625 21.418C82.625 23.626 83.8145 25.0547 85.626 25.0547C86.624 25.0547 87.4648 24.5488 87.9023 23.7764H87.9297V24.8975C87.9297 25.957 87.1846 26.668 85.9541 26.668C85.0654 26.668 84.3613 26.2373 84.1289 25.5879H82.9053C83.1035 26.7979 84.3408 27.6797 85.9062 27.6797ZM93.7323 22.2861C93.8486 24.0293 95.2978 25.1641 97.3896 25.1641C99.6591 25.1641 101.081 24.0361 101.081 22.2314C101.081 20.8164 100.254 20.0303 98.2099 19.5176L97.1777 19.2441C95.8378 18.8955 95.2909 18.4512 95.2909 17.7061C95.2909 16.7422 96.1796 16.0791 97.4579 16.0791C98.7431 16.0791 99.5976 16.7285 99.707 17.7881H100.937C100.883 16.1338 99.4609 14.9717 97.499 14.9717C95.4482 14.9717 94.0126 16.1201 94.0126 17.7607C94.0126 19.1006 94.8193 19.9004 96.6376 20.3652L97.9023 20.6934C99.2284 21.0352 99.8095 21.5479 99.8095 22.3818C99.8095 23.3525 98.8388 24.0566 97.5058 24.0566C96.0976 24.0566 95.0859 23.3525 94.9697 22.2861H93.7323ZM105.517 25.123C107.479 25.123 108.805 23.708 108.805 21.4453C108.805 19.1758 107.479 17.7676 105.517 17.7676C103.548 17.7676 102.222 19.1758 102.222 21.4453C102.222 23.708 103.548 25.123 105.517 25.123ZM105.517 24.0771C104.259 24.0771 103.432 23.1201 103.432 21.4453C103.432 19.7705 104.259 18.8135 105.517 18.8135C106.775 18.8135 107.595 19.7705 107.595 21.4453C107.595 23.1201 106.775 24.0771 105.517 24.0771ZM113.193 25.123C115.155 25.123 116.481 23.708 116.481 21.4453C116.481 19.1758 115.155 17.7676 113.193 17.7676C111.224 17.7676 109.898 19.1758 109.898 21.4453C109.898 23.708 111.224 25.123 113.193 25.123ZM113.193 24.0771C111.935 24.0771 111.108 23.1201 111.108 21.4453C111.108 19.7705 111.935 18.8135 113.193 18.8135C114.451 18.8135 115.271 19.7705 115.271 21.4453C115.271 23.1201 114.451 24.0771 113.193 24.0771ZM117.923 25H119.113V20.8164C119.113 19.6133 119.844 18.8203 120.965 18.8203C122.059 18.8203 122.599 19.4492 122.599 20.5977V25H123.788V20.3857C123.788 18.7725 122.886 17.7676 121.327 17.7676C120.227 17.7676 119.468 18.2598 119.072 19.0254H119.044V17.8906H117.923V25Z" fill="white"/>
</svg>
