<svg width="1920" height="800" viewBox="0 0 1920 800" fill="none" xmlns="http://www.w3.org/2000/svg">
<g clip-path="url(#clip0)">
<rect width="1920" height="800" fill="#F8F8F8"/>
<path d="M-18.0235 -61.6887L50.5067 -22.5285V55.7917L-18.0235 94.9518L-86.5537 55.7917V-22.5285L-18.0235 -61.6887Z" fill="white"/>
<path d="M-18.0235 188.937L50.5067 228.097V306.417L-18.0235 345.578L-86.5537 306.417V228.097L-18.0235 188.937Z" fill="white"/>
<path d="M-18.0235 439.563L50.5067 478.723V557.043L-18.0235 596.203L-86.5537 557.043V478.723L-18.0235 439.563Z" fill="white"/>
<path d="M-18.0235 690.186L50.5067 729.346V807.666L-18.0235 846.826L-86.5537 807.666V729.346L-18.0235 690.186Z" fill="white"/>
<path d="M54.4223 63.6257L122.952 102.786V181.106L54.4223 220.266L-14.1079 181.106V102.786L54.4223 63.6257Z" fill="white"/>
<path d="M54.4223 314.251L122.952 353.411V431.732L54.4223 470.892L-14.1079 431.732V353.411L54.4223 314.251Z" fill="white"/>
<path d="M54.4223 564.874L122.952 604.034V682.355L54.4223 721.515L-14.1079 682.355V604.034L54.4223 564.874Z" fill="white"/>
<path d="M126.869 -61.6887L195.399 -22.5285V55.7917L126.869 94.9518L58.3389 55.7917V-22.5285L126.869 -61.6887Z" fill="white"/>
<path d="M126.869 188.937L195.399 228.097V306.417L126.869 345.578L58.3389 306.417V228.097L126.869 188.937Z" fill="white"/>
<path d="M126.869 439.563L195.399 478.723V557.043L126.869 596.203L58.3389 557.043V478.723L126.869 439.563Z" fill="white"/>
<path d="M126.869 690.186L195.399 729.346V807.666L126.869 846.826L58.3389 807.666V729.346L126.869 690.186Z" fill="white"/>
<path d="M199.315 63.6257L267.845 102.786V181.106L199.315 220.266L130.785 181.106V102.786L199.315 63.6257Z" fill="white"/>
<path d="M199.315 314.251L267.845 353.411V431.732L199.315 470.892L130.785 431.732V353.411L199.315 314.251Z" fill="white"/>
<path d="M199.315 564.874L267.845 604.034V682.355L199.315 721.515L130.785 682.355V604.034L199.315 564.874Z" fill="white"/>
<path d="M271.761 -61.6887L340.291 -22.5285V55.7917L271.761 94.9518L203.231 55.7917V-22.5285L271.761 -61.6887Z" fill="white"/>
<path d="M271.761 188.937L340.291 228.097V306.417L271.761 345.578L203.231 306.417V228.097L271.761 188.937Z" fill="white"/>
<path d="M271.761 439.563L340.291 478.723V557.043L271.761 596.203L203.231 557.043V478.723L271.761 439.563Z" fill="white"/>
<path d="M271.761 690.186L340.291 729.346V807.666L271.761 846.826L203.231 807.666V729.346L271.761 690.186Z" fill="white"/>
<path d="M344.207 63.6257L412.738 102.786V181.106L344.207 220.266L275.677 181.106V102.786L344.207 63.6257Z" fill="white"/>
<path d="M344.207 314.251L412.738 353.411V431.732L344.207 470.892L275.677 431.732V353.411L344.207 314.251Z" fill="white"/>
<path d="M344.207 564.874L412.738 604.034V682.355L344.207 721.515L275.677 682.355V604.034L344.207 564.874Z" fill="white"/>
<path d="M416.653 -61.6887L485.183 -22.5285V55.7917L416.653 94.9518L348.123 55.7917V-22.5285L416.653 -61.6887Z" fill="white"/>
<path d="M416.653 188.937L485.183 228.097V306.417L416.653 345.578L348.123 306.417V228.097L416.653 188.937Z" fill="white"/>
<path d="M416.653 439.563L485.183 478.723V557.043L416.653 596.203L348.123 557.043V478.723L416.653 439.563Z" fill="white"/>
<path d="M416.653 690.186L485.183 729.346V807.666L416.653 846.826L348.123 807.666V729.346L416.653 690.186Z" fill="white"/>
<path d="M489.1 63.6257L557.63 102.786V181.106L489.1 220.266L420.569 181.106V102.786L489.1 63.6257Z" fill="white"/>
<path d="M489.1 314.251L557.63 353.411V431.732L489.1 470.892L420.569 431.732V353.411L489.1 314.251Z" fill="white"/>
<path d="M489.1 564.874L557.63 604.034V682.355L489.1 721.515L420.569 682.355V604.034L489.1 564.874Z" fill="white"/>
<path d="M561.546 -61.6887L630.076 -22.5285V55.7917L561.546 94.9518L493.016 55.7917V-22.5285L561.546 -61.6887Z" fill="white"/>
<path d="M561.546 188.937L630.076 228.097V306.417L561.546 345.578L493.016 306.417V228.097L561.546 188.937Z" fill="white"/>
<path d="M561.546 439.563L630.076 478.723V557.043L561.546 596.203L493.016 557.043V478.723L561.546 439.563Z" fill="white"/>
<path d="M561.546 690.186L630.076 729.346V807.666L561.546 846.826L493.016 807.666V729.346L561.546 690.186Z" fill="white"/>
<path d="M633.992 63.6257L702.522 102.786V181.106L633.992 220.266L565.462 181.106V102.786L633.992 63.6257Z" fill="white"/>
<path d="M633.992 314.251L702.522 353.411V431.732L633.992 470.892L565.462 431.732V353.411L633.992 314.251Z" fill="white"/>
<path d="M633.992 564.874L702.522 604.034V682.355L633.992 721.515L565.462 682.355V604.034L633.992 564.874Z" fill="white"/>
<path d="M706.438 -61.6887L774.969 -22.5285V55.7917L706.438 94.9518L637.908 55.7917V-22.5285L706.438 -61.6887Z" fill="white"/>
<path d="M706.438 188.937L774.969 228.097V306.417L706.438 345.578L637.908 306.417V228.097L706.438 188.937Z" fill="white"/>
<path d="M706.438 439.563L774.969 478.723V557.043L706.438 596.203L637.908 557.043V478.723L706.438 439.563Z" fill="white"/>
<path d="M706.438 690.186L774.969 729.346V807.666L706.438 846.826L637.908 807.666V729.346L706.438 690.186Z" fill="white"/>
<path d="M778.884 63.6257L847.414 102.786V181.106L778.884 220.266L710.354 181.106V102.786L778.884 63.6257Z" fill="white"/>
<path d="M778.884 314.251L847.414 353.411V431.732L778.884 470.892L710.354 431.732V353.411L778.884 314.251Z" fill="white"/>
<path d="M778.884 564.874L847.414 604.034V682.355L778.884 721.515L710.354 682.355V604.034L778.884 564.874Z" fill="white"/>
<path d="M851.331 -61.6887L919.862 -22.5285V55.7917L851.331 94.9518L782.801 55.7917V-22.5285L851.331 -61.6887Z" fill="white"/>
<path d="M851.331 188.937L919.862 228.097V306.417L851.331 345.578L782.801 306.417V228.097L851.331 188.937Z" fill="white"/>
<path d="M851.331 439.563L919.862 478.723V557.043L851.331 596.203L782.801 557.043V478.723L851.331 439.563Z" fill="white"/>
<path d="M851.331 690.186L919.862 729.346V807.666L851.331 846.826L782.801 807.666V729.346L851.331 690.186Z" fill="white"/>
<path d="M923.776 63.6257L992.306 102.786V181.106L923.776 220.266L855.246 181.106V102.786L923.776 63.6257Z" fill="white"/>
<path d="M923.776 314.251L992.306 353.411V431.732L923.776 470.892L855.246 431.732V353.411L923.776 314.251Z" fill="white"/>
<path d="M923.776 564.874L992.306 604.034V682.355L923.776 721.515L855.246 682.355V604.034L923.776 564.874Z" fill="white"/>
<path d="M996.224 -61.6887L1064.75 -22.5285V55.7917L996.224 94.9518L927.693 55.7917V-22.5285L996.224 -61.6887Z" fill="white"/>
<path d="M996.224 188.937L1064.75 228.097V306.417L996.224 345.578L927.693 306.417V228.097L996.224 188.937Z" fill="white"/>
<path d="M996.224 439.563L1064.75 478.723V557.043L996.224 596.203L927.693 557.043V478.723L996.224 439.563Z" fill="white"/>
<path d="M996.224 690.186L1064.75 729.346V807.666L996.224 846.826L927.693 807.666V729.346L996.224 690.186Z" fill="white"/>
<path d="M1068.67 63.6257L1137.2 102.786V181.106L1068.67 220.266L1000.14 181.106V102.786L1068.67 63.6257Z" fill="white"/>
<path d="M1068.67 314.251L1137.2 353.411V431.732L1068.67 470.892L1000.14 431.732V353.411L1068.67 314.251Z" fill="white"/>
<path d="M1068.67 564.874L1137.2 604.034V682.355L1068.67 721.515L1000.14 682.355V604.034L1068.67 564.874Z" fill="white"/>
<path d="M1141.12 -61.6887L1209.65 -22.5285V55.7917L1141.12 94.9518L1072.59 55.7917V-22.5285L1141.12 -61.6887Z" fill="white"/>
<path d="M1141.12 188.937L1209.65 228.097V306.417L1141.12 345.578L1072.59 306.417V228.097L1141.12 188.937Z" fill="white"/>
<path d="M1141.12 439.563L1209.65 478.723V557.043L1141.12 596.203L1072.59 557.043V478.723L1141.12 439.563Z" fill="white"/>
<path d="M1141.12 690.186L1209.65 729.346V807.666L1141.12 846.826L1072.59 807.666V729.346L1141.12 690.186Z" fill="white"/>
<path d="M1213.56 63.6257L1282.09 102.786V181.106L1213.56 220.266L1145.03 181.106V102.786L1213.56 63.6257Z" fill="white"/>
<path d="M1213.56 314.251L1282.09 353.411V431.732L1213.56 470.892L1145.03 431.732V353.411L1213.56 314.251Z" fill="white"/>
<path d="M1213.56 564.874L1282.09 604.034V682.355L1213.56 721.515L1145.03 682.355V604.034L1213.56 564.874Z" fill="white"/>
<path d="M1286.01 -61.6887L1354.54 -22.5285V55.7917L1286.01 94.9518L1217.48 55.7917V-22.5285L1286.01 -61.6887Z" fill="white"/>
<path d="M1286.01 188.937L1354.54 228.097V306.417L1286.01 345.578L1217.48 306.417V228.097L1286.01 188.937Z" fill="white"/>
<path d="M1286.01 439.563L1354.54 478.723V557.043L1286.01 596.203L1217.48 557.043V478.723L1286.01 439.563Z" fill="white"/>
<path d="M1286.01 690.186L1354.54 729.346V807.666L1286.01 846.826L1217.48 807.666V729.346L1286.01 690.186Z" fill="white"/>
<path d="M1358.45 63.6257L1426.99 102.786V181.106L1358.45 220.266L1289.92 181.106V102.786L1358.45 63.6257Z" fill="white"/>
<path d="M1358.45 314.251L1426.99 353.411V431.732L1358.45 470.892L1289.92 431.732V353.411L1358.45 314.251Z" fill="white"/>
<path d="M1358.45 564.874L1426.99 604.034V682.355L1358.45 721.515L1289.92 682.355V604.034L1358.45 564.874Z" fill="white"/>
<path d="M1430.9 -61.6887L1499.43 -22.5285V55.7917L1430.9 94.9518L1362.37 55.7917V-22.5285L1430.9 -61.6887Z" fill="white"/>
<path d="M1430.9 188.937L1499.43 228.097V306.417L1430.9 345.578L1362.37 306.417V228.097L1430.9 188.937Z" fill="white"/>
<path d="M1430.9 439.563L1499.43 478.723V557.043L1430.9 596.203L1362.37 557.043V478.723L1430.9 439.563Z" fill="white"/>
<path d="M1430.9 690.186L1499.43 729.346V807.666L1430.9 846.826L1362.37 807.666V729.346L1430.9 690.186Z" fill="white"/>
<path d="M1503.35 63.6257L1571.88 102.786V181.106L1503.35 220.266L1434.82 181.106V102.786L1503.35 63.6257Z" fill="white"/>
<path d="M1503.35 314.251L1571.88 353.411V431.732L1503.35 470.892L1434.82 431.732V353.411L1503.35 314.251Z" fill="white"/>
<path d="M1503.35 564.874L1571.88 604.034V682.355L1503.35 721.515L1434.82 682.355V604.034L1503.35 564.874Z" fill="white"/>
<path d="M1575.79 -61.6887L1644.32 -22.5285V55.7917L1575.79 94.9518L1507.26 55.7917V-22.5285L1575.79 -61.6887Z" fill="white"/>
<path d="M1575.79 188.937L1644.32 228.097V306.417L1575.79 345.578L1507.26 306.417V228.097L1575.79 188.937Z" fill="white"/>
<path d="M1575.79 439.563L1644.32 478.723V557.043L1575.79 596.203L1507.26 557.043V478.723L1575.79 439.563Z" fill="white"/>
<path d="M1575.79 690.186L1644.32 729.346V807.666L1575.79 846.826L1507.26 807.666V729.346L1575.79 690.186Z" fill="white"/>
<path d="M1648.24 63.6257L1716.77 102.786V181.106L1648.24 220.266L1579.71 181.106V102.786L1648.24 63.6257Z" fill="white"/>
<path d="M1648.24 314.251L1716.77 353.411V431.732L1648.24 470.892L1579.71 431.732V353.411L1648.24 314.251Z" fill="white"/>
<path d="M1648.24 564.874L1716.77 604.034V682.355L1648.24 721.515L1579.71 682.355V604.034L1648.24 564.874Z" fill="white"/>
<path d="M1720.69 -61.6887L1789.22 -22.5285V55.7917L1720.69 94.9518L1652.16 55.7917V-22.5285L1720.69 -61.6887Z" fill="white"/>
<path d="M1720.69 188.937L1789.22 228.097V306.417L1720.69 345.578L1652.16 306.417V228.097L1720.69 188.937Z" fill="white"/>
<path d="M1720.69 439.563L1789.22 478.723V557.043L1720.69 596.203L1652.16 557.043V478.723L1720.69 439.563Z" fill="white"/>
<path d="M1720.69 690.186L1789.22 729.346V807.666L1720.69 846.826L1652.16 807.666V729.346L1720.69 690.186Z" fill="white"/>
<path d="M1793.13 63.6257L1861.66 102.786V181.106L1793.13 220.266L1724.6 181.106V102.786L1793.13 63.6257Z" fill="white"/>
<path d="M1793.13 314.251L1861.66 353.411V431.732L1793.13 470.892L1724.6 431.732V353.411L1793.13 314.251Z" fill="white"/>
<path d="M1793.13 564.874L1861.66 604.034V682.355L1793.13 721.515L1724.6 682.355V604.034L1793.13 564.874Z" fill="white"/>
<path d="M1865.58 -61.6887L1934.11 -22.5285V55.7917L1865.58 94.9518L1797.05 55.7917V-22.5285L1865.58 -61.6887Z" fill="white"/>
<path d="M1865.58 188.937L1934.11 228.097V306.417L1865.58 345.578L1797.05 306.417V228.097L1865.58 188.937Z" fill="white"/>
<path d="M1865.58 439.563L1934.11 478.723V557.043L1865.58 596.203L1797.05 557.043V478.723L1865.58 439.563Z" fill="white"/>
<path d="M1865.58 690.186L1934.11 729.346V807.666L1865.58 846.826L1797.05 807.666V729.346L1865.58 690.186Z" fill="white"/>
<path d="M1938.02 63.6257L2006.55 102.786V181.106L1938.02 220.266L1869.49 181.106V102.786L1938.02 63.6257Z" fill="white"/>
<path d="M1938.02 314.251L2006.55 353.411V431.732L1938.02 470.892L1869.49 431.732V353.411L1938.02 314.251Z" fill="white"/>
<path d="M1938.02 564.874L2006.55 604.034V682.355L1938.02 721.515L1869.49 682.355V604.034L1938.02 564.874Z" fill="white"/>
<g filter="url(#filter0_d)">
<path d="M199.315 314.251L267.845 353.411V431.732L199.315 470.892L130.785 431.732V353.411L199.315 314.251Z" fill="white"/>
<path d="M199.315 564.874L267.845 604.034V682.354L199.315 721.515L130.785 682.354V604.034L199.315 564.874Z" fill="white"/>
<path d="M271.761 439.565L340.291 478.726V557.046L271.761 596.206L203.231 557.046V478.726L271.761 439.565Z" fill="white"/>
<path d="M416.653 -61.6859L485.183 -22.5258V55.7944L416.653 94.9545L348.123 55.7944V-22.5258L416.653 -61.6859Z" fill="white"/>
<path d="M1358.45 63.6256L1426.99 102.786V181.106L1358.45 220.266L1289.92 181.106V102.786L1358.45 63.6256Z" fill="white"/>
<path d="M1430.9 -61.6859L1499.43 -22.5258V55.7944L1430.9 94.9545L1362.37 55.7944V-22.5258L1430.9 -61.6859Z" fill="white"/>
<path d="M1793.13 63.6256L1861.66 102.786V181.106L1793.13 220.266L1724.6 181.106V102.786L1793.13 63.6256Z" fill="white"/>
<path d="M1865.58 188.94L1934.11 228.1V306.42L1865.58 345.58L1797.05 306.42V228.1L1865.58 188.94Z" fill="white"/>
</g>
</g>
<defs>
<filter id="filter0_d" x="95.7847" y="-96.6859" width="1889.32" height="1245.14" filterUnits="userSpaceOnUse" color-interpolation-filters="sRGB">
<feFlood flood-opacity="0" result="BackgroundImageFix"/>
<feColorMatrix in="SourceAlpha" type="matrix" values="0 0 0 0 0 0 0 0 0 0 0 0 0 0 0 0 0 0 127 0"/>
<feOffset dx="8" dy="8"/>
<feGaussianBlur stdDeviation="21.5"/>
<feColorMatrix type="matrix" values="0 0 0 0 0 0 0 0 0 0 0 0 0 0 0 0 0 0 0.06 0"/>
<feBlend mode="normal" in2="BackgroundImageFix" result="effect1_dropShadow"/>
<feBlend mode="normal" in="SourceGraphic" in2="effect1_dropShadow" result="shape"/>
</filter>
<clipPath id="clip0">
<rect width="1920" height="800" fill="white"/>
</clipPath>
</defs>
</svg>
