<svg width="41" height="40" viewBox="0 0 41 40" fill="none" xmlns="http://www.w3.org/2000/svg">
<path d="M20.5 0C16.5444 0 12.6776 1.17298 9.3886 3.37061C6.09962 5.56823 3.53617 8.69181 2.02242 12.3463C0.508666 16.0009 0.112599 20.0222 0.884303 23.9018C1.65601 27.7814 3.56082 31.3451 6.35787 34.1421C9.15492 36.9392 12.7186 38.844 16.5982 39.6157C20.4778 40.3874 24.4992 39.9913 28.1537 38.4776C31.8082 36.9638 34.9318 34.4004 37.1294 31.1114C39.327 27.8224 40.5 23.9556 40.5 20C40.5 14.6957 38.3929 9.60859 34.6421 5.85786C30.8914 2.10714 25.8043 0 20.5 0ZM20.5 36.6667C17.2036 36.6667 13.9813 35.6892 11.2405 33.8578C8.49968 32.0265 6.36348 29.4235 5.10202 26.3781C3.84056 23.3326 3.5105 19.9815 4.15359 16.7485C4.79667 13.5155 6.38402 10.5458 8.71489 8.21489C11.0458 5.88401 14.0155 4.29667 17.2485 3.65358C20.4815 3.01049 23.8326 3.34055 26.8781 4.60201C29.9235 5.86347 32.5265 7.99968 34.3578 10.7405C36.1892 13.4813 37.1667 16.7036 37.1667 20C37.1667 22.1887 36.7356 24.356 35.898 26.3781C35.0604 28.4001 33.8328 30.2375 32.2851 31.7851C30.7375 33.3328 28.9002 34.5604 26.8781 35.398C24.856 36.2356 22.6887 36.6667 20.5 36.6667Z" fill="#27AE60"/>
<path d="M17.7331 29.5668L9.39979 21.2334C9.12674 20.9146 8.98406 20.5045 9.00027 20.085C9.01647 19.6656 9.19036 19.2677 9.48718 18.9708C9.784 18.674 10.1819 18.5001 10.6014 18.4839C11.0208 18.4677 11.4309 18.6104 11.7498 18.8834L17.7331 24.8668L29.0331 13.5668C29.3519 13.2937 29.7621 13.1511 30.1815 13.1673C30.601 13.1835 30.9989 13.3573 31.2957 13.6542C31.5925 13.951 31.7664 14.3489 31.7826 14.7684C31.7988 15.1878 31.6562 15.5979 31.3831 15.9168L17.7331 29.5668Z" fill="#27AE60"/>
</svg>
