<svg width="32" height="32" viewBox="0 0 32 32" fill="none" xmlns="http://www.w3.org/2000/svg">
<path d="M20.6668 10.0003L25.3335 5.33366M28.0001 2.66699L25.3335 5.33366L28.0001 2.66699ZM15.1868 15.4803C15.8752 16.1596 16.4225 16.9684 16.7971 17.86C17.1717 18.7517 17.3663 19.7087 17.3695 20.6758C17.3727 21.643 17.1846 22.6012 16.816 23.4954C16.4474 24.3896 15.9055 25.202 15.2216 25.8858C14.5378 26.5697 13.7254 27.1116 12.8312 27.4802C11.937 27.8488 10.9788 28.0369 10.0116 28.0337C9.04448 28.0305 8.08751 27.8359 7.19584 27.4613C6.30417 27.0867 5.49541 26.5394 4.81612 25.851C3.4803 24.4679 2.74114 22.6155 2.75785 20.6927C2.77455 18.7699 3.54579 16.9306 4.90545 15.571C6.26511 14.2113 8.1044 13.4401 10.0272 13.4234C11.95 13.4067 13.8024 14.1458 15.1855 15.4817L15.1868 15.4803ZM15.1868 15.4803L20.6668 10.0003L15.1868 15.4803ZM20.6668 10.0003L24.6668 14.0003L29.3335 9.33366L25.3335 5.33366L20.6668 10.0003Z" stroke="black" stroke-opacity="0.87" stroke-width="1.77778" stroke-linecap="round" stroke-linejoin="round"/>
</svg>
