<svg width="32" height="32" viewBox="0 0 32 32" fill="none" xmlns="http://www.w3.org/2000/svg">
<path d="M13.2094 23.6288L13.2425 23.5625L13.2094 23.4962L11.6542 20.3859L11.6368 20.3511L11.6045 20.3293L0.148148 12.6074V12.1875C0.148148 8.31636 2.05855 4.5608 5.36424 2.43307L5.28406 2.3085L5.36425 2.43307C7.68665 0.938212 10.3736 0.148148 13.1352 0.148148H18.8648C25.9695 0.148148 31.8519 5.13991 31.8519 12.1875V12.6074L20.3954 20.3293L20.3632 20.3511L20.3457 20.3859L18.7906 23.4962L18.7575 23.5625L18.7906 23.6288L20.5394 27.1262V31.8519H11.4606V27.1262L13.2094 23.6288ZM12.7479 18.9299L12.7851 19.0231H12.8855H15.0625H15.2106V18.875V9.60094V9.44853L15.0583 9.45285C13.1656 9.50646 11.2767 9.72186 9.41521 10.0989L9.2413 10.1342L9.30701 10.299L12.7479 18.9299ZM17.2956 22.7731H17.3872L17.4281 22.6913L18.3656 20.8163L18.4728 20.6019H18.2331H13.7669H13.5272L13.6344 20.8163L14.5719 22.6913L14.6128 22.7731H14.7044H17.2956ZM18.2331 26.5231H18.4728L18.3656 26.3087L17.4281 24.4337L17.3871 24.3519H17.2956H14.7044H14.6128L14.5719 24.4337L13.6344 26.3087L13.5272 26.5231H13.7669H18.2331ZM18.8125 30.2731H18.9606V30.125V28.25V28.1019H18.8125H13.1875H13.0394V28.25V30.125V30.2731H13.1875H18.8125ZM21.576 17.3043L21.4036 17.746L21.7968 17.481L29.2494 12.4576L29.4727 12.3071L29.2261 12.1991C27.6458 11.5065 26.0205 10.9439 24.3668 10.5121L24.2393 10.4788L24.1914 10.6016L21.576 17.3043ZM29.9466 10.7911L30.194 10.9004L30.1529 10.6331C29.5135 6.48093 26.5212 3.13927 21.6963 2.04403L21.1461 1.91913L21.564 2.29823C23.072 3.66622 23.7475 5.25026 24.0492 6.50717C24.2001 7.13578 24.2573 7.68206 24.2782 8.07748C24.2887 8.27511 24.2901 8.43509 24.2895 8.54908C24.2893 8.58916 24.2889 8.62299 24.2886 8.65155C24.2884 8.664 24.2883 8.67545 24.2882 8.68597C24.288 8.70271 24.2879 8.71792 24.2881 8.73018L24.2881 8.73131C24.2882 8.73895 24.2885 8.75993 24.2926 8.77909L24.3119 8.86955L24.4016 8.89193C26.2912 9.36322 28.147 9.99648 29.9466 10.7911ZM16.9586 1.79561L16.7894 1.77129V1.94225V7.7265V7.87073L16.9335 7.87459C18.8106 7.92494 20.6841 8.12721 22.5333 8.48101L22.7121 8.51521L22.7093 8.33323C22.6583 5.00491 20.1729 2.25745 16.9586 1.79561ZM16.9417 9.45285L16.7894 9.44853V9.60094V18.875V19.0231H16.9375H19.1095H19.2107L19.2475 18.9289L22.6208 10.2838L22.6849 10.1193L22.5118 10.0847C20.674 9.71665 18.8098 9.50577 16.9417 9.45285ZM15.2106 1.94225V1.77129L15.0414 1.79561C11.8271 2.25745 9.34169 5.00492 9.29068 8.33329L9.28789 8.51527L9.46665 8.48107C11.3159 8.12727 13.1894 7.92494 15.0665 7.87466L15.2106 7.87079V7.72656V1.94225ZM10.436 2.29829L10.8539 1.91919L10.3037 2.04409C8.86035 2.37171 7.47906 2.94931 6.21869 3.76055L6.29887 3.88513L6.21869 3.76055C3.87121 5.27159 2.28059 7.81796 1.84714 10.6331L1.80598 10.9004L2.05341 10.7911C3.85296 9.99648 5.7088 9.36322 7.59835 8.89193L7.71065 8.86392V8.74819V8.4375C7.71065 6.00629 8.7627 3.81624 10.436 2.29829ZM2.77384 12.1991L2.52728 12.3071L2.75051 12.4576L10.1707 17.459L10.569 17.7275L10.3911 17.2813L7.73511 10.6193L7.68655 10.4974L7.55974 10.5309C5.93129 10.9601 4.33078 11.5167 2.77384 12.1991Z" fill="black" fill-opacity="0.87" stroke="white" stroke-width="0.296296"/>
</svg>
