<svg width="32" height="32" viewBox="0 0 32 32" fill="none" xmlns="http://www.w3.org/2000/svg">
<g clip-path="url(#clip0)">
<path d="M28.9333 2.88867H6.54074C4.85185 2.89608 3.48148 4.26645 3.48148 5.96275V5.99978H3.06667C1.37778 5.99978 0.00740741 7.36275 0 9.05163V26.0368C0.00740741 27.7257 1.37037 29.1035 3.06667 29.1109H25.4593C27.1481 29.1035 28.5185 27.7331 28.5185 26.0368V25.9998H28.9333C30.6222 25.9998 31.9926 24.6368 32 22.9479V5.96275C31.9926 4.26645 30.6296 2.89608 28.9333 2.88867ZM25.4593 27.6294H3.06667C2.19259 27.622 1.48889 26.9109 1.48148 26.0368V9.05163C1.48889 8.18497 2.19259 7.48126 3.06667 7.48126H25.4593C26.3259 7.48126 27.037 8.17756 27.037 9.05163V13.2887C26.9037 13.3183 26.7704 13.3331 26.6444 13.3331H22.3704C20.0444 13.3331 18.1556 15.222 18.1556 17.5479C18.1556 19.8739 20.0444 21.7627 22.3704 21.7702H26.637C26.7704 21.7627 26.9037 21.7479 27.0296 21.7331L27.037 26.0368C27.037 26.9109 26.3333 27.622 25.4593 27.6294ZM30.5185 22.9479C30.5111 23.8146 29.8074 24.5183 28.9333 24.5183H28.5185V21.1998C28.837 20.985 29.1259 20.7183 29.3704 20.422L30.5185 18.9405V22.9479ZM28.2 19.5257C27.8296 20.0072 27.2519 20.2887 26.6444 20.2961H22.3704C20.8593 20.2887 19.637 19.0665 19.637 17.5553C19.637 16.0442 20.8593 14.822 22.3704 14.8146H26.637C27.1481 14.8146 27.6519 14.7035 28.1111 14.4813C28.6 14.2516 29.0296 13.9035 29.363 13.4739L30.5111 11.9924L30.5185 16.5183L28.2 19.5257ZM30.5185 9.57015L28.5185 12.1479V9.05163C28.5185 7.36275 27.1481 5.99978 25.4593 5.99978H4.96296V5.96275C4.96296 5.08867 5.66667 4.37756 6.54074 4.37015H28.9333C29.8074 4.37756 30.5111 5.08867 30.5185 5.96275V9.57015Z" fill="black" fill-opacity="0.87"/>
<path d="M24.0297 16.8145H22.252C21.8446 16.8145 21.5112 17.1478 21.5112 17.5552C21.5112 17.9626 21.8446 18.2959 22.252 18.2959H24.0297C24.4372 18.2959 24.7705 17.9626 24.7705 17.5552C24.7705 17.1478 24.4372 16.8145 24.0297 16.8145Z" fill="black" fill-opacity="0.87"/>
</g>
<defs>
<clipPath id="clip0">
<rect width="32" height="32" fill="white"/>
</clipPath>
</defs>
</svg>
