<svg width="572" height="249" viewBox="0 0 572 249" fill="none" xmlns="http://www.w3.org/2000/svg">
<rect x="190.855" y="67.8804" width="112.444" height="112.444" rx="56.2222" fill="white"/>
<path d="M274.828 108.567V140.497L251.062 154.078V137.632L260.442 132.274V116.79L246.919 109.065L237.539 114.422L223.152 106.199L246.919 92.6191L274.828 108.567Z" fill="url(#paint0_linear)"/>
<path d="M246.919 124.514V156.445L232.532 148.225V132.741L219.009 125.013V108.567L246.919 124.514Z" fill="url(#paint1_linear)"/>
<rect x="190.855" y="67.8804" width="112.444" height="112.444" rx="56.2222" stroke="url(#paint2_linear)" stroke-width="0.376068"/>
<circle cx="247.077" cy="124.103" r="84.4038" stroke="url(#paint3_linear)" stroke-width="0.423077"/>
<circle cx="247.077" cy="124.103" r="112.538" stroke="url(#paint4_linear)" stroke-width="0.564102"/>
<path d="M73.5544 32.9425C73.5544 33.4028 73.7575 33.7683 74.1637 34.0391C74.5698 34.3099 75.064 34.5197 75.6461 34.6687C76.2283 34.8176 76.8104 34.9868 77.3926 35.1763C77.9748 35.3523 78.4689 35.657 78.8751 36.0902C79.2812 36.5099 79.4843 37.065 79.4843 37.7554C79.4843 38.6219 79.1391 39.3259 78.4486 39.8674C77.7717 40.409 76.8917 40.6797 75.8086 40.6797C74.8338 40.6797 74.0012 40.4631 73.3108 40.0299C72.6338 39.5967 72.16 39.0348 71.8892 38.3443L73.0264 37.6742C73.216 38.2022 73.5544 38.6219 74.0418 38.9333C74.5428 39.2311 75.1317 39.38 75.8086 39.38C76.472 39.38 77.0271 39.2514 77.4738 38.9942C77.9206 38.7234 78.144 38.3105 78.144 37.7554C78.144 37.2951 77.9409 36.9296 77.5348 36.6588C77.1286 36.388 76.6344 36.1782 76.0523 36.0293C75.4701 35.8803 74.888 35.7179 74.3058 35.5419C73.7237 35.3523 73.2295 35.0477 72.8234 34.628C72.4172 34.1948 72.2141 33.633 72.2141 32.9425C72.2141 32.1167 72.5391 31.4262 73.1889 30.8711C73.8523 30.316 74.6849 30.0385 75.6868 30.0385C76.5126 30.0385 77.2369 30.228 77.8597 30.6071C78.4824 30.9727 78.9428 31.4736 79.2406 32.1099L78.1237 32.7597C77.7311 31.812 76.9188 31.3382 75.6868 31.3382C75.1046 31.3382 74.6037 31.4803 74.184 31.7647C73.7643 32.0354 73.5544 32.428 73.5544 32.9425ZM86.283 30.0385C87.7858 30.0385 88.9975 30.5733 89.9181 31.6428C90.8523 32.6988 91.3193 33.9511 91.3193 35.3997C91.3193 35.5487 91.3058 35.7585 91.2787 36.0293H82.3636C82.499 37.0582 82.9323 37.8773 83.6633 38.4865C84.408 39.0822 85.3218 39.38 86.4049 39.38C87.1766 39.38 87.84 39.2243 88.395 38.913C88.9636 38.588 89.3901 38.1683 89.6744 37.6539L90.8523 38.3443C90.4055 39.0619 89.7963 39.6305 89.0246 40.0502C88.2529 40.4699 87.3729 40.6797 86.3846 40.6797C84.787 40.6797 83.4873 40.1788 82.4855 39.177C81.4836 38.1751 80.9827 36.9025 80.9827 35.3591C80.9827 33.8428 81.4769 32.577 82.4652 31.5616C83.4535 30.5462 84.7261 30.0385 86.283 30.0385ZM86.283 31.3382C85.227 31.3382 84.3403 31.6563 83.6227 32.2927C82.9187 32.9154 82.499 33.7277 82.3636 34.7296H89.9384C89.803 33.66 89.3901 32.8274 88.6996 32.2317C88.0092 31.636 87.2036 31.3382 86.283 31.3382ZM98.3522 40.6797C96.8224 40.6797 95.5498 40.172 94.5344 39.1567C93.519 38.1277 93.0113 36.8619 93.0113 35.3591C93.0113 33.8563 93.519 32.5973 94.5344 31.5819C95.5498 30.553 96.8224 30.0385 98.3522 30.0385C99.3541 30.0385 100.254 30.2822 101.053 30.7696C101.852 31.2434 102.434 31.8865 102.8 32.6988L101.703 33.3283C101.432 32.7191 100.992 32.2385 100.383 31.8865C99.7873 31.521 99.1104 31.3382 98.3522 31.3382C97.2286 31.3382 96.2809 31.7308 95.5092 32.516C94.7375 33.2877 94.3516 34.2354 94.3516 35.3591C94.3516 36.4828 94.7375 37.4373 95.5092 38.2225C96.2809 38.9942 97.2286 39.38 98.3522 39.38C99.1104 39.38 99.7873 39.204 100.383 38.852C100.979 38.4865 101.446 37.9991 101.784 37.3899L102.901 38.0397C102.481 38.852 101.865 39.4951 101.053 39.969C100.241 40.4428 99.3406 40.6797 98.3522 40.6797ZM112.143 30.2822H113.483V40.436H112.143V38.852C111.385 40.0705 110.248 40.6797 108.731 40.6797C107.499 40.6797 106.525 40.3074 105.807 39.5628C105.103 38.8047 104.751 37.7893 104.751 36.5167V30.2822H106.091V36.5167C106.091 37.4237 106.328 38.1277 106.802 38.6287C107.289 39.1296 107.973 39.38 108.853 39.38C109.828 39.38 110.62 39.0754 111.229 38.4662C111.838 37.8434 112.143 36.889 112.143 35.6028V30.2822ZM117.828 31.9677C118.451 30.7357 119.52 30.1197 121.037 30.1197V31.4194C120.116 31.4194 119.351 31.6902 118.742 32.2317C118.133 32.7733 117.828 33.6262 117.828 34.7905V40.436H116.488V30.2822H117.828V31.9677ZM124.404 27.8453C124.214 28.0348 123.984 28.1296 123.713 28.1296C123.442 28.1296 123.212 28.0348 123.023 27.8453C122.833 27.6557 122.738 27.4256 122.738 27.1548C122.738 26.884 122.833 26.6539 123.023 26.4643C123.212 26.2748 123.442 26.18 123.713 26.18C123.984 26.18 124.214 26.2748 124.404 26.4643C124.593 26.6539 124.688 26.884 124.688 27.1548C124.688 27.4256 124.593 27.6557 124.404 27.8453ZM123.043 40.436V30.2822H124.383V40.436H123.043ZM132.778 31.5819H129.854V37.7351C129.854 38.2902 129.962 38.6896 130.179 38.9333C130.395 39.1634 130.72 39.2853 131.154 39.2988C131.587 39.2988 132.128 39.2853 132.778 39.2582V40.436C131.357 40.6527 130.287 40.5511 129.57 40.1314C128.866 39.7117 128.514 38.913 128.514 37.7351V31.5819H126.381V30.2822H128.514V27.8453L129.854 27.4391V30.2822H132.778V31.5819ZM142.69 30.2822H144.112L139.766 41.3702C139.373 42.372 138.812 43.1573 138.08 43.7259C137.363 44.308 136.557 44.5653 135.664 44.4976V43.2385C136.882 43.3739 137.81 42.6699 138.446 41.1265L138.71 40.497L134.161 30.2822H135.583L139.4 38.7911L142.69 30.2822Z" fill="black" fill-opacity="0.87"/>
<rect x="156.256" y="0.564103" width="62.0513" height="62.0513" rx="31.0256" fill="white"/>
<path d="M187.282 48.5129C187.282 48.5129 200.821 41.9693 200.821 32.1539V20.7026L187.282 15.7949L173.744 20.7026V32.1539C173.744 41.9693 187.282 48.5129 187.282 48.5129Z" stroke="black" stroke-opacity="0.87" stroke-width="1.12821" stroke-linecap="round" stroke-linejoin="round"/>
<rect x="156.256" y="0.564103" width="62.0513" height="62.0513" rx="31.0256" stroke="url(#paint5_linear)" stroke-width="1.12821"/>
<path d="M13.6468 120.539H15.0277L11.9003 130.692H10.4382L7.81846 122.508L5.19877 130.692H3.73662L0.609231 120.539H1.99015L4.488 128.966L7.14831 120.539H8.48862L11.1489 128.966L13.6468 120.539ZM25.3305 129.413C24.3015 130.428 23.0425 130.936 21.5532 130.936C20.064 130.936 18.7982 130.428 17.7557 129.413C16.7268 128.384 16.2123 127.118 16.2123 125.615C16.2123 124.113 16.7268 122.854 17.7557 121.838C18.7982 120.809 20.064 120.295 21.5532 120.295C23.0425 120.295 24.3015 120.809 25.3305 121.838C26.3729 122.854 26.8942 124.113 26.8942 125.615C26.8942 127.118 26.3729 128.384 25.3305 129.413ZM18.7102 128.479C19.4818 129.251 20.4295 129.636 21.5532 129.636C22.6769 129.636 23.6246 129.251 24.3963 128.479C25.168 127.694 25.5538 126.739 25.5538 125.615C25.5538 124.492 25.168 123.544 24.3963 122.772C23.6246 121.987 22.6769 121.595 21.5532 121.595C20.4295 121.595 19.4818 121.987 18.7102 122.772C17.9385 123.544 17.5526 124.492 17.5526 125.615C17.5526 126.739 17.9385 127.694 18.7102 128.479ZM30.6466 122.224C31.2693 120.992 32.3389 120.376 33.8552 120.376V121.676C32.9346 121.676 32.1697 121.947 31.5604 122.488C30.9512 123.03 30.6466 123.883 30.6466 125.047V130.692H29.3063V120.539H30.6466V122.224ZM35.8613 130.692V115.868H37.2016V130.692H35.8613ZM48.9474 116.477H50.2877V130.692H48.9474V128.702C48.0132 130.191 46.6458 130.936 44.8452 130.936C43.3966 130.936 42.1578 130.422 41.1289 129.393C40.1135 128.364 39.6058 127.105 39.6058 125.615C39.6058 124.126 40.1135 122.867 41.1289 121.838C42.1578 120.809 43.3966 120.295 44.8452 120.295C46.6458 120.295 48.0132 121.039 48.9474 122.529V116.477ZM42.1037 128.479C42.8754 129.251 43.823 129.636 44.9467 129.636C46.0704 129.636 47.0181 129.251 47.7898 128.479C48.5615 127.694 48.9474 126.739 48.9474 125.615C48.9474 124.492 48.5615 123.544 47.7898 122.772C47.0181 121.987 46.0704 121.595 44.9467 121.595C43.823 121.595 42.8754 121.987 42.1037 122.772C41.332 123.544 40.9461 124.492 40.9461 125.615C40.9461 126.739 41.332 127.694 42.1037 128.479ZM65.52 120.539H66.9009L63.7735 130.692H62.3113L59.6917 122.508L57.072 130.692H55.6098L52.4824 120.539H53.8633L56.3612 128.966L59.0215 120.539H60.3618L63.0221 128.966L65.52 120.539ZM70.452 118.102C70.2624 118.291 70.0323 118.386 69.7615 118.386C69.4908 118.386 69.2606 118.291 69.0711 118.102C68.8815 117.912 68.7868 117.682 68.7868 117.411C68.7868 117.14 68.8815 116.91 69.0711 116.721C69.2606 116.531 69.4908 116.436 69.7615 116.436C70.0323 116.436 70.2624 116.531 70.452 116.721C70.6415 116.91 70.7363 117.14 70.7363 117.411C70.7363 117.682 70.6415 117.912 70.452 118.102ZM69.0914 130.692V120.539H70.4317V130.692H69.0914ZM82.1774 116.477H83.5177V130.692H82.1774V128.702C81.2432 130.191 79.8759 130.936 78.0752 130.936C76.6266 130.936 75.3879 130.422 74.3589 129.393C73.3436 128.364 72.8359 127.105 72.8359 125.615C72.8359 124.126 73.3436 122.867 74.3589 121.838C75.3879 120.809 76.6266 120.295 78.0752 120.295C79.8759 120.295 81.2432 121.039 82.1774 122.529V116.477ZM75.3337 128.479C76.1054 129.251 77.0531 129.636 78.1768 129.636C79.3005 129.636 80.2482 129.251 81.0199 128.479C81.7916 127.694 82.1774 126.739 82.1774 125.615C82.1774 124.492 81.7916 123.544 81.0199 122.772C80.2482 121.987 79.3005 121.595 78.1768 121.595C77.0531 121.595 76.1054 121.987 75.3337 122.772C74.562 123.544 74.1762 124.492 74.1762 125.615C74.1762 126.739 74.562 127.694 75.3337 128.479ZM91.2159 120.295C92.7186 120.295 93.9303 120.83 94.8509 121.899C95.7851 122.955 96.2522 124.207 96.2522 125.656C96.2522 125.805 96.2386 126.015 96.2115 126.286H87.2965C87.4319 127.315 87.8651 128.134 88.5962 128.743C89.3408 129.339 90.2546 129.636 91.3377 129.636C92.1094 129.636 92.7728 129.481 93.3279 129.169C93.8965 128.844 94.3229 128.425 94.6072 127.91L95.7851 128.601C95.3383 129.318 94.7291 129.887 93.9574 130.307C93.1857 130.726 92.3057 130.936 91.3174 130.936C89.7199 130.936 88.4202 130.435 87.4183 129.433C86.4165 128.431 85.9155 127.159 85.9155 125.615C85.9155 124.099 86.4097 122.833 87.398 121.818C88.3863 120.803 89.6589 120.295 91.2159 120.295ZM91.2159 121.595C90.1599 121.595 89.2731 121.913 88.5555 122.549C87.8515 123.172 87.4319 123.984 87.2965 124.986H94.8712C94.7359 123.916 94.3229 123.084 93.6325 122.488C92.942 121.892 92.1365 121.595 91.2159 121.595Z" fill="black" fill-opacity="0.87"/>
<rect x="108.872" y="90.8205" width="62.0513" height="62.0513" rx="31.0256" fill="white"/>
<path d="M139.897 136.889C148.205 136.889 154.94 130.154 154.94 121.846C154.94 113.538 148.205 106.803 139.897 106.803C131.59 106.803 124.855 113.538 124.855 121.846C124.855 130.154 131.59 136.889 139.897 136.889Z" stroke="black" stroke-opacity="0.87" stroke-width="1.12821" stroke-linecap="round" stroke-linejoin="round"/>
<path d="M124.855 121.846H154.94" stroke="black" stroke-opacity="0.87" stroke-width="1.12821" stroke-linecap="round" stroke-linejoin="round"/>
<path d="M139.897 106.803C143.66 110.922 145.798 116.268 145.915 121.846C145.798 127.424 143.66 132.769 139.897 136.889C136.135 132.769 133.997 127.424 133.88 121.846C133.997 116.268 136.135 110.922 139.897 106.803V106.803Z" stroke="black" stroke-opacity="0.87" stroke-width="1.12821" stroke-linecap="round" stroke-linejoin="round"/>
<rect x="108.872" y="90.8205" width="62.0513" height="62.0513" rx="31.0256" stroke="url(#paint6_linear)" stroke-width="1.12821"/>
<path d="M355.917 30.0385C357.149 30.0385 358.117 30.4176 358.821 31.1757C359.539 31.9203 359.898 32.929 359.898 34.2016V40.436H358.557V34.2016C358.557 33.2945 358.314 32.5905 357.826 32.0896C357.353 31.5887 356.676 31.3382 355.796 31.3382C354.821 31.3382 354.029 31.6496 353.42 32.2723C352.81 32.8816 352.506 33.8293 352.506 35.1154V40.436H351.165V26.2207H352.506V31.8662C353.264 30.6477 354.401 30.0385 355.917 30.0385ZM364.019 27.8453C363.83 28.0348 363.6 28.1296 363.329 28.1296C363.058 28.1296 362.828 28.0348 362.638 27.8453C362.449 27.6557 362.354 27.4256 362.354 27.1548C362.354 26.884 362.449 26.6539 362.638 26.4643C362.828 26.2748 363.058 26.18 363.329 26.18C363.6 26.18 363.83 26.2748 364.019 26.4643C364.209 26.6539 364.304 26.884 364.304 27.1548C364.304 27.4256 364.209 27.6557 364.019 27.8453ZM362.659 40.436V30.2822H363.999V40.436H362.659ZM375.745 30.2822H377.085V40.0299C377.085 41.492 376.584 42.6428 375.582 43.4822C374.58 44.3216 373.382 44.7413 371.988 44.7413C369.605 44.7413 368.001 43.9154 367.175 42.2637L368.353 41.5936C368.962 42.8256 370.174 43.4416 371.988 43.4416C373.152 43.4416 374.066 43.1302 374.729 42.5074C375.406 41.8982 375.745 41.0723 375.745 40.0299V38.4459C374.81 39.9351 373.443 40.6797 371.642 40.6797C370.194 40.6797 368.955 40.1653 367.926 39.1363C366.911 38.1074 366.403 36.8483 366.403 35.3591C366.403 33.8699 366.911 32.6108 367.926 31.5819C368.955 30.553 370.194 30.0385 371.642 30.0385C373.443 30.0385 374.81 30.7831 375.745 32.2723V30.2822ZM368.901 38.2225C369.673 38.9942 370.62 39.38 371.744 39.38C372.868 39.38 373.815 38.9942 374.587 38.2225C375.359 37.4373 375.745 36.4828 375.745 35.3591C375.745 34.2354 375.359 33.2877 374.587 32.516C373.815 31.7308 372.868 31.3382 371.744 31.3382C370.62 31.3382 369.673 31.7308 368.901 32.516C368.129 33.2877 367.743 34.2354 367.743 35.3591C367.743 36.4828 368.129 37.4373 368.901 38.2225ZM384.844 30.0385C386.076 30.0385 387.044 30.4176 387.748 31.1757C388.466 31.9203 388.824 32.929 388.824 34.2016V40.436H387.484V34.2016C387.484 33.2945 387.24 32.5905 386.753 32.0896C386.279 31.5887 385.602 31.3382 384.722 31.3382C383.747 31.3382 382.955 31.6496 382.346 32.2723C381.737 32.8816 381.432 33.8293 381.432 35.1154V40.436H380.092V26.2207H381.432V31.8662C382.19 30.6477 383.328 30.0385 384.844 30.0385ZM402.274 30.0385C403.722 30.0385 404.954 30.553 405.97 31.5819C406.999 32.6108 407.513 33.8699 407.513 35.3591C407.513 36.8483 406.999 38.1074 405.97 39.1363C404.954 40.1653 403.722 40.6797 402.274 40.6797C400.473 40.6797 399.106 39.9351 398.172 38.4459V44.4976H396.831V30.2822H398.172V32.2723C399.106 30.7831 400.473 30.0385 402.274 30.0385ZM399.329 38.2225C400.101 38.9942 401.049 39.38 402.172 39.38C403.296 39.38 404.244 38.9942 405.015 38.2225C405.787 37.4373 406.173 36.4828 406.173 35.3591C406.173 34.2354 405.787 33.2877 405.015 32.516C404.244 31.7308 403.296 31.3382 402.172 31.3382C401.049 31.3382 400.101 31.7308 399.329 32.516C398.557 33.2877 398.172 34.2354 398.172 35.3591C398.172 36.4828 398.557 37.4373 399.329 38.2225ZM414.602 30.0385C416.105 30.0385 417.317 30.5733 418.237 31.6428C419.171 32.6988 419.638 33.9511 419.638 35.3997C419.638 35.5487 419.625 35.7585 419.598 36.0293H410.683C410.818 37.0582 411.251 37.8773 411.982 38.4865C412.727 39.0822 413.641 39.38 414.724 39.38C415.496 39.38 416.159 39.2243 416.714 38.913C417.283 38.588 417.709 38.1683 417.993 37.6539L419.171 38.3443C418.725 39.0619 418.115 39.6305 417.344 40.0502C416.572 40.4699 415.692 40.6797 414.704 40.6797C413.106 40.6797 411.806 40.1788 410.805 39.177C409.803 38.1751 409.302 36.9025 409.302 35.3591C409.302 33.8428 409.796 32.577 410.784 31.5616C411.773 30.5462 413.045 30.0385 414.602 30.0385ZM414.602 31.3382C413.546 31.3382 412.659 31.6563 411.942 32.2927C411.238 32.9154 410.818 33.7277 410.683 34.7296H418.257C418.122 33.66 417.709 32.8274 417.019 32.2317C416.328 31.636 415.523 31.3382 414.602 31.3382ZM423.28 31.9677C423.903 30.7357 424.972 30.1197 426.489 30.1197V31.4194C425.568 31.4194 424.803 31.6902 424.194 32.2317C423.585 32.7733 423.28 33.6262 423.28 34.7905V40.436H421.94V30.2822H423.28V31.9677ZM433.572 27.2767C432.583 27.1954 431.845 27.3647 431.358 27.7843C430.884 28.204 430.647 28.9013 430.647 29.876V30.2822H433.572V31.5819H430.647V40.436H429.307V31.5819H427.581V30.2822H429.307V29.876C429.307 28.5493 429.672 27.5474 430.404 26.8705C431.148 26.18 432.204 25.8822 433.572 25.977V27.2767ZM443.063 39.1567C442.034 40.172 440.775 40.6797 439.286 40.6797C437.796 40.6797 436.531 40.172 435.488 39.1567C434.459 38.1277 433.945 36.8619 433.945 35.3591C433.945 33.8563 434.459 32.5973 435.488 31.5819C436.531 30.553 437.796 30.0385 439.286 30.0385C440.775 30.0385 442.034 30.553 443.063 31.5819C444.105 32.5973 444.627 33.8563 444.627 35.3591C444.627 36.8619 444.105 38.1277 443.063 39.1567ZM436.443 38.2225C437.214 38.9942 438.162 39.38 439.286 39.38C440.409 39.38 441.357 38.9942 442.129 38.2225C442.9 37.4373 443.286 36.4828 443.286 35.3591C443.286 34.2354 442.9 33.2877 442.129 32.516C441.357 31.7308 440.409 31.3382 439.286 31.3382C438.162 31.3382 437.214 31.7308 436.443 32.516C435.671 33.2877 435.285 34.2354 435.285 35.3591C435.285 36.4828 435.671 37.4373 436.443 38.2225ZM457.863 30.0385C459 30.0385 459.914 30.404 460.604 31.1351C461.308 31.8662 461.66 32.8545 461.66 34.1V40.436H460.32V34.1C460.32 33.22 460.09 32.5431 459.629 32.0693C459.183 31.5819 458.587 31.3382 457.842 31.3382C457.003 31.3382 456.319 31.6225 455.791 32.1911C455.277 32.7462 455.02 33.6194 455.02 34.8108V40.436H453.679V34.1C453.679 33.2065 453.463 32.5228 453.029 32.049C452.61 31.5751 452.034 31.3382 451.303 31.3382C450.491 31.3382 449.8 31.6225 449.232 32.1911C448.663 32.7597 448.379 33.633 448.379 34.8108V40.436H447.039V30.2822H448.379V31.7647C449.11 30.6139 450.146 30.0385 451.486 30.0385C452.948 30.0385 453.977 30.6545 454.573 31.8865C455.304 30.6545 456.4 30.0385 457.863 30.0385ZM473.154 30.2822H474.494V40.436H473.154V38.4459C472.22 39.9351 470.853 40.6797 469.052 40.6797C467.603 40.6797 466.365 40.1653 465.336 39.1363C464.32 38.1074 463.813 36.8483 463.813 35.3591C463.813 33.8699 464.32 32.6108 465.336 31.5819C466.365 30.553 467.603 30.0385 469.052 30.0385C470.853 30.0385 472.22 30.7831 473.154 32.2723V30.2822ZM466.31 38.2225C467.082 38.9942 468.03 39.38 469.153 39.38C470.277 39.38 471.225 38.9942 471.997 38.2225C472.768 37.4373 473.154 36.4828 473.154 35.3591C473.154 34.2354 472.768 33.2877 471.997 32.516C471.225 31.7308 470.277 31.3382 469.153 31.3382C468.03 31.3382 467.082 31.7308 466.31 32.516C465.539 33.2877 465.153 34.2354 465.153 35.3591C465.153 36.4828 465.539 37.4373 466.31 38.2225ZM482.253 30.0385C483.485 30.0385 484.453 30.4176 485.157 31.1757C485.875 31.9203 486.234 32.929 486.234 34.2016V40.436H484.893V34.2016C484.893 33.2945 484.65 32.5905 484.162 32.0896C483.689 31.5887 483.012 31.3382 482.132 31.3382C481.157 31.3382 480.365 31.6496 479.756 32.2723C479.146 32.8816 478.842 33.8293 478.842 35.1154V40.436H477.501V30.2822H478.842V31.8662C479.6 30.6477 480.737 30.0385 482.253 30.0385ZM493.726 40.6797C492.196 40.6797 490.924 40.172 489.908 39.1567C488.893 38.1277 488.385 36.8619 488.385 35.3591C488.385 33.8563 488.893 32.5973 489.908 31.5819C490.924 30.553 492.196 30.0385 493.726 30.0385C494.728 30.0385 495.628 30.2822 496.427 30.7696C497.226 31.2434 497.808 31.8865 498.174 32.6988L497.077 33.3283C496.806 32.7191 496.366 32.2385 495.757 31.8865C495.161 31.521 494.484 31.3382 493.726 31.3382C492.603 31.3382 491.655 31.7308 490.883 32.516C490.112 33.2877 489.726 34.2354 489.726 35.3591C489.726 36.4828 490.112 37.4373 490.883 38.2225C491.655 38.9942 492.603 39.38 493.726 39.38C494.484 39.38 495.161 39.204 495.757 38.852C496.353 38.4865 496.82 37.9991 497.158 37.3899L498.275 38.0397C497.856 38.852 497.24 39.4951 496.427 39.969C495.615 40.4428 494.715 40.6797 493.726 40.6797ZM504.961 30.0385C506.463 30.0385 507.675 30.5733 508.596 31.6428C509.53 32.6988 509.997 33.9511 509.997 35.3997C509.997 35.5487 509.983 35.7585 509.956 36.0293H501.041C501.177 37.0582 501.61 37.8773 502.341 38.4865C503.086 39.0822 503.999 39.38 505.083 39.38C505.854 39.38 506.518 39.2243 507.073 38.913C507.641 38.588 508.068 38.1683 508.352 37.6539L509.53 38.3443C509.083 39.0619 508.474 39.6305 507.702 40.0502C506.931 40.4699 506.051 40.6797 505.062 40.6797C503.465 40.6797 502.165 40.1788 501.163 39.177C500.161 38.1751 499.66 36.9025 499.66 35.3591C499.66 33.8428 500.155 32.577 501.143 31.5616C502.131 30.5462 503.404 30.0385 504.961 30.0385ZM504.961 31.3382C503.905 31.3382 503.018 31.6563 502.3 32.2927C501.596 32.9154 501.177 33.7277 501.041 34.7296H508.616C508.481 33.66 508.068 32.8274 507.377 32.2317C506.687 31.636 505.881 31.3382 504.961 31.3382Z" fill="black" fill-opacity="0.87"/>
<rect x="275.846" y="0.564103" width="62.0513" height="62.0513" rx="31.0256" fill="white"/>
<path d="M306.872 40.6155V29.3335" stroke="black" stroke-opacity="0.87" stroke-width="2.25641" stroke-linecap="round" stroke-linejoin="round"/>
<path d="M313.641 40.6152V22.564" stroke="black" stroke-opacity="0.87" stroke-width="2.25641" stroke-linecap="round" stroke-linejoin="round"/>
<path d="M300.103 40.6154V36.1025" stroke="black" stroke-opacity="0.87" stroke-width="2.25641" stroke-linecap="round" stroke-linejoin="round"/>
<rect x="275.846" y="0.564103" width="62.0513" height="62.0513" rx="31.0256" stroke="url(#paint7_linear)" stroke-width="1.12821"/>
<path d="M48.6074 215.064C50.056 215.064 51.288 215.579 52.3034 216.608C53.3323 217.637 53.8468 218.896 53.8468 220.385C53.8468 221.874 53.3323 223.133 52.3034 224.162C51.288 225.191 50.056 225.706 48.6074 225.706C46.8068 225.706 45.4394 224.961 44.5053 223.472V225.462H43.1649V211.247H44.5053V217.298C45.4394 215.809 46.8068 215.064 48.6074 215.064ZM45.6628 223.248C46.4345 224.02 47.3822 224.406 48.5059 224.406C49.6296 224.406 50.5773 224.02 51.3489 223.248C52.1206 222.463 52.5065 221.509 52.5065 220.385C52.5065 219.261 52.1206 218.314 51.3489 217.542C50.5773 216.757 49.6296 216.364 48.5059 216.364C47.3822 216.364 46.4345 216.757 45.6628 217.542C44.8911 218.314 44.5053 219.261 44.5053 220.385C44.5053 221.509 44.8911 222.463 45.6628 223.248ZM56.2446 225.462V210.637H57.5849V225.462H56.2446ZM69.1073 224.183C68.0784 225.198 66.8193 225.706 65.3301 225.706C63.8408 225.706 62.575 225.198 61.5325 224.183C60.5036 223.154 59.9891 221.888 59.9891 220.385C59.9891 218.882 60.5036 217.623 61.5325 216.608C62.575 215.579 63.8408 215.064 65.3301 215.064C66.8193 215.064 68.0784 215.579 69.1073 216.608C70.1497 217.623 70.671 218.882 70.671 220.385C70.671 221.888 70.1497 223.154 69.1073 224.183ZM62.487 223.248C63.2587 224.02 64.2064 224.406 65.3301 224.406C66.4537 224.406 67.4014 224.02 68.1731 223.248C68.9448 222.463 69.3307 221.509 69.3307 220.385C69.3307 219.261 68.9448 218.314 68.1731 217.542C67.4014 216.757 66.4537 216.364 65.3301 216.364C64.2064 216.364 63.2587 216.757 62.487 217.542C61.7153 218.314 61.3294 219.261 61.3294 220.385C61.3294 221.509 61.7153 222.463 62.487 223.248ZM77.8148 225.706C76.2849 225.706 75.0123 225.198 73.9969 224.183C72.9816 223.154 72.4739 221.888 72.4739 220.385C72.4739 218.882 72.9816 217.623 73.9969 216.608C75.0123 215.579 76.2849 215.064 77.8148 215.064C78.8166 215.064 79.7169 215.308 80.5157 215.795C81.3145 216.269 81.8966 216.912 82.2622 217.725L81.1656 218.354C80.8948 217.745 80.4548 217.264 79.8456 216.912C79.2499 216.547 78.5729 216.364 77.8148 216.364C76.6911 216.364 75.7434 216.757 74.9717 217.542C74.2 218.314 73.8142 219.261 73.8142 220.385C73.8142 221.509 74.2 222.463 74.9717 223.248C75.7434 224.02 76.6911 224.406 77.8148 224.406C78.5729 224.406 79.2499 224.23 79.8456 223.878C80.4412 223.512 80.9083 223.025 81.2468 222.416L82.3637 223.066C81.944 223.878 81.328 224.521 80.5157 224.995C79.7034 225.469 78.8031 225.706 77.8148 225.706ZM92.6616 225.462H90.8745L85.7976 220.568V225.462H84.4573V211.247H85.7976V219.796L90.6308 215.308H92.4585L87.2191 220.182L92.6616 225.462ZM98.3816 225.706C96.8518 225.706 95.5792 225.198 94.5638 224.183C93.5484 223.154 93.0407 221.888 93.0407 220.385C93.0407 218.882 93.5484 217.623 94.5638 216.608C95.5792 215.579 96.8518 215.064 98.3816 215.064C99.3835 215.064 100.284 215.308 101.083 215.795C101.881 216.269 102.463 216.912 102.829 217.725L101.732 218.354C101.462 217.745 101.022 217.264 100.412 216.912C99.8167 216.547 99.1398 216.364 98.3816 216.364C97.2579 216.364 96.3102 216.757 95.5385 217.542C94.7668 218.314 94.381 219.261 94.381 220.385C94.381 221.509 94.7668 222.463 95.5385 223.248C96.3102 224.02 97.2579 224.406 98.3816 224.406C99.1398 224.406 99.8167 224.23 100.412 223.878C101.008 223.512 101.475 223.025 101.814 222.416L102.931 223.066C102.511 223.878 101.895 224.521 101.083 224.995C100.27 225.469 99.3699 225.706 98.3816 225.706ZM109.776 215.064C111.008 215.064 111.976 215.443 112.68 216.202C113.398 216.946 113.756 217.955 113.756 219.227V225.462H112.416V219.227C112.416 218.32 112.172 217.616 111.685 217.115C111.211 216.615 110.534 216.364 109.654 216.364C108.679 216.364 107.887 216.675 107.278 217.298C106.669 217.907 106.364 218.855 106.364 220.141V225.462H105.024V211.247H106.364V216.892C107.123 215.674 108.26 215.064 109.776 215.064ZM125.25 215.308H126.59V225.462H125.25V223.472C124.315 224.961 122.948 225.706 121.147 225.706C119.699 225.706 118.46 225.191 117.431 224.162C116.416 223.133 115.908 221.874 115.908 220.385C115.908 218.896 116.416 217.637 117.431 216.608C118.46 215.579 119.699 215.064 121.147 215.064C122.948 215.064 124.315 215.809 125.25 217.298V215.308ZM118.406 223.248C119.178 224.02 120.125 224.406 121.249 224.406C122.373 224.406 123.32 224.02 124.092 223.248C124.864 222.463 125.25 221.509 125.25 220.385C125.25 219.261 124.864 218.314 124.092 217.542C123.32 216.757 122.373 216.364 121.249 216.364C120.125 216.364 119.178 216.757 118.406 217.542C117.634 218.314 117.248 219.261 117.248 220.385C117.248 221.509 117.634 222.463 118.406 223.248ZM130.958 212.871C130.768 213.061 130.538 213.155 130.267 213.155C129.996 213.155 129.766 213.061 129.577 212.871C129.387 212.682 129.292 212.451 129.292 212.181C129.292 211.91 129.387 211.68 129.577 211.49C129.766 211.301 129.996 211.206 130.267 211.206C130.538 211.206 130.768 211.301 130.958 211.49C131.147 211.68 131.242 211.91 131.242 212.181C131.242 212.451 131.147 212.682 130.958 212.871ZM129.597 225.462V215.308H130.937V225.462H129.597ZM138.703 215.064C139.935 215.064 140.903 215.443 141.607 216.202C142.324 216.946 142.683 217.955 142.683 219.227V225.462H141.343V219.227C141.343 218.32 141.099 217.616 140.612 217.115C140.138 216.615 139.461 216.364 138.581 216.364C137.606 216.364 136.814 216.675 136.205 217.298C135.596 217.907 135.291 218.855 135.291 220.141V225.462H133.951V215.308H135.291V216.892C136.049 215.674 137.186 215.064 138.703 215.064Z" fill="black" fill-opacity="0.87"/>
<rect x="156.256" y="185.59" width="62.0513" height="62.0513" rx="31.0256" fill="white"/>
<line x1="187.733" y1="206.123" x2="201.271" y2="224.174" stroke="black" stroke-width="1.12821"/>
<line x1="186.618" y1="206.781" x2="174.208" y2="224.832" stroke="black" stroke-width="1.12821"/>
<rect x="182.769" y="199.692" width="9.02564" height="9.02564" fill="white"/>
<rect x="183.333" y="200.256" width="7.89744" height="7.89744" stroke="black" stroke-opacity="0.87" stroke-width="1.12821"/>
<rect x="196.307" y="220" width="9.02564" height="9.02564" fill="white"/>
<rect x="196.871" y="220.564" width="7.89744" height="7.89744" stroke="black" stroke-opacity="0.87" stroke-width="1.12821"/>
<rect x="169.23" y="220" width="9.02564" height="9.02564" fill="white"/>
<rect x="169.795" y="220.564" width="7.89744" height="7.89744" stroke="black" stroke-opacity="0.87" stroke-width="1.12821"/>
<rect x="156.256" y="185.59" width="62.0513" height="62.0513" rx="31.0256" stroke="url(#paint8_linear)" stroke-width="1.12821"/>
<path d="M359.898 211.246H361.238V225.461H359.898V223.471C358.964 224.961 357.596 225.705 355.796 225.705C354.347 225.705 353.108 225.191 352.079 224.162C351.064 223.133 350.556 221.874 350.556 220.385C350.556 218.895 351.064 217.636 352.079 216.607C353.108 215.578 354.347 215.064 355.796 215.064C357.596 215.064 358.964 215.809 359.898 217.298V211.246ZM353.054 223.248C353.826 224.02 354.773 224.405 355.897 224.405C357.021 224.405 357.969 224.02 358.74 223.248C359.512 222.463 359.898 221.508 359.898 220.385C359.898 219.261 359.512 218.313 358.74 217.541C357.969 216.756 357.021 216.364 355.897 216.364C354.773 216.364 353.826 216.756 353.054 217.541C352.282 218.313 351.897 219.261 351.897 220.385C351.897 221.508 352.282 222.463 353.054 223.248ZM368.936 215.064C370.439 215.064 371.651 215.599 372.571 216.668C373.505 217.724 373.973 218.977 373.973 220.425C373.973 220.574 373.959 220.784 373.932 221.055H365.017C365.152 222.084 365.585 222.903 366.317 223.512C367.061 224.108 367.975 224.405 369.058 224.405C369.83 224.405 370.493 224.25 371.048 223.938C371.617 223.613 372.043 223.194 372.328 222.679L373.505 223.37C373.059 224.087 372.449 224.656 371.678 225.076C370.906 225.495 370.026 225.705 369.038 225.705C367.44 225.705 366.141 225.204 365.139 224.202C364.137 223.201 363.636 221.928 363.636 220.385C363.636 218.868 364.13 217.602 365.118 216.587C366.107 215.572 367.379 215.064 368.936 215.064ZM368.936 216.364C367.88 216.364 366.993 216.682 366.276 217.318C365.572 217.941 365.152 218.753 365.017 219.755H372.592C372.456 218.685 372.043 217.853 371.353 217.257C370.662 216.661 369.857 216.364 368.936 216.364ZM381.005 225.705C379.476 225.705 378.203 225.197 377.188 224.182C376.172 223.153 375.664 221.887 375.664 220.385C375.664 218.882 376.172 217.623 377.188 216.607C378.203 215.578 379.476 215.064 381.005 215.064C382.007 215.064 382.908 215.308 383.706 215.795C384.505 216.269 385.087 216.912 385.453 217.724L384.356 218.354C384.085 217.745 383.645 217.264 383.036 216.912C382.44 216.546 381.764 216.364 381.005 216.364C379.882 216.364 378.934 216.756 378.162 217.541C377.391 218.313 377.005 219.261 377.005 220.385C377.005 221.508 377.391 222.463 378.162 223.248C378.934 224.02 379.882 224.405 381.005 224.405C381.764 224.405 382.44 224.229 383.036 223.877C383.632 223.512 384.099 223.025 384.437 222.415L385.554 223.065C385.135 223.877 384.519 224.521 383.706 224.994C382.894 225.468 381.994 225.705 381.005 225.705ZM392.24 215.064C393.743 215.064 394.954 215.599 395.875 216.668C396.809 217.724 397.276 218.977 397.276 220.425C397.276 220.574 397.263 220.784 397.235 221.055H388.32C388.456 222.084 388.889 222.903 389.62 223.512C390.365 224.108 391.279 224.405 392.362 224.405C393.133 224.405 393.797 224.25 394.352 223.938C394.92 223.613 395.347 223.194 395.631 222.679L396.809 223.37C396.362 224.087 395.753 224.656 394.981 225.076C394.21 225.495 393.33 225.705 392.341 225.705C390.744 225.705 389.444 225.204 388.442 224.202C387.44 223.201 386.939 221.928 386.939 220.385C386.939 218.868 387.434 217.602 388.422 216.587C389.41 215.572 390.683 215.064 392.24 215.064ZM392.24 216.364C391.184 216.364 390.297 216.682 389.579 217.318C388.875 217.941 388.456 218.753 388.32 219.755H395.895C395.76 218.685 395.347 217.853 394.656 217.257C393.966 216.661 393.16 216.364 392.24 216.364ZM404.329 215.064C405.561 215.064 406.529 215.443 407.233 216.201C407.951 216.946 408.31 217.954 408.31 219.227V225.461H406.969V219.227C406.969 218.32 406.726 217.616 406.238 217.115C405.764 216.614 405.087 216.364 404.207 216.364C403.233 216.364 402.441 216.675 401.831 217.298C401.222 217.907 400.918 218.855 400.918 220.141V225.461H399.577V215.308H400.918V216.892C401.676 215.673 402.813 215.064 404.329 215.064ZM416.452 216.607H413.528V222.761C413.528 223.316 413.636 223.715 413.853 223.959C414.069 224.189 414.394 224.311 414.827 224.324C415.261 224.324 415.802 224.311 416.452 224.284V225.461C415.03 225.678 413.961 225.577 413.243 225.157C412.539 224.737 412.187 223.938 412.187 222.761V216.607H410.055V215.308H412.187V212.871L413.528 212.465V215.308H416.452V216.607ZM420.195 216.993C420.818 215.761 421.888 215.145 423.404 215.145V216.445C422.483 216.445 421.718 216.716 421.109 217.257C420.5 217.799 420.195 218.652 420.195 219.816V225.461H418.855V215.308H420.195V216.993ZM433.528 215.308H434.868V225.461H433.528V223.471C432.594 224.961 431.226 225.705 429.426 225.705C427.977 225.705 426.738 225.191 425.709 224.162C424.694 223.133 424.186 221.874 424.186 220.385C424.186 218.895 424.694 217.636 425.709 216.607C426.738 215.578 427.977 215.064 429.426 215.064C431.226 215.064 432.594 215.809 433.528 217.298V215.308ZM426.684 223.248C427.456 224.02 428.403 224.405 429.527 224.405C430.651 224.405 431.598 224.02 432.37 223.248C433.142 222.463 433.528 221.508 433.528 220.385C433.528 219.261 433.142 218.313 432.37 217.541C431.598 216.756 430.651 216.364 429.527 216.364C428.403 216.364 427.456 216.756 426.684 217.541C425.912 218.313 425.526 219.261 425.526 220.385C425.526 221.508 425.912 222.463 426.684 223.248ZM437.875 225.461V210.637H439.215V225.461H437.875ZM443.589 212.871C443.4 213.06 443.17 213.155 442.899 213.155C442.628 213.155 442.398 213.06 442.208 212.871C442.019 212.681 441.924 212.451 441.924 212.18C441.924 211.909 442.019 211.679 442.208 211.49C442.398 211.3 442.628 211.205 442.899 211.205C443.17 211.205 443.4 211.3 443.589 211.49C443.779 211.679 443.874 211.909 443.874 212.18C443.874 212.451 443.779 212.681 443.589 212.871ZM442.229 225.461V215.308H443.569V225.461H442.229ZM448.045 224.162H453.893V225.461H446.176V224.568L451.822 216.607H446.379V215.308H453.69V216.201L448.045 224.162ZM464.408 215.308H465.749V225.461H464.408V223.471C463.474 224.961 462.107 225.705 460.306 225.705C458.858 225.705 457.619 225.191 456.59 224.162C455.574 223.133 455.067 221.874 455.067 220.385C455.067 218.895 455.574 217.636 456.59 216.607C457.619 215.578 458.858 215.064 460.306 215.064C462.107 215.064 463.474 215.809 464.408 217.298V215.308ZM457.565 223.248C458.336 224.02 459.284 224.405 460.408 224.405C461.531 224.405 462.479 224.02 463.251 223.248C464.022 222.463 464.408 221.508 464.408 220.385C464.408 219.261 464.022 218.313 463.251 217.541C462.479 216.756 461.531 216.364 460.408 216.364C459.284 216.364 458.336 216.756 457.565 217.541C456.793 218.313 456.407 219.261 456.407 220.385C456.407 221.508 456.793 222.463 457.565 223.248ZM474.137 216.607H471.213V222.761C471.213 223.316 471.321 223.715 471.538 223.959C471.754 224.189 472.079 224.311 472.513 224.324C472.946 224.324 473.487 224.311 474.137 224.284V225.461C472.716 225.678 471.646 225.577 470.929 225.157C470.225 224.737 469.873 223.938 469.873 222.761V216.607H467.74V215.308H469.873V212.871L471.213 212.465V215.308H474.137V216.607ZM477.901 212.871C477.711 213.06 477.481 213.155 477.21 213.155C476.94 213.155 476.71 213.06 476.52 212.871C476.33 212.681 476.236 212.451 476.236 212.18C476.236 211.909 476.33 211.679 476.52 211.49C476.71 211.3 476.94 211.205 477.21 211.205C477.481 211.205 477.711 211.3 477.901 211.49C478.09 211.679 478.185 211.909 478.185 212.18C478.185 212.451 478.09 212.681 477.901 212.871ZM476.54 225.461V215.308H477.881V225.461H476.54ZM489.403 224.182C488.374 225.197 487.115 225.705 485.626 225.705C484.137 225.705 482.871 225.197 481.828 224.182C480.799 223.153 480.285 221.887 480.285 220.385C480.285 218.882 480.799 217.623 481.828 216.607C482.871 215.578 484.137 215.064 485.626 215.064C487.115 215.064 488.374 215.578 489.403 216.607C490.445 217.623 490.967 218.882 490.967 220.385C490.967 221.887 490.445 223.153 489.403 224.182ZM482.783 223.248C483.554 224.02 484.502 224.405 485.626 224.405C486.749 224.405 487.697 224.02 488.469 223.248C489.241 222.463 489.626 221.508 489.626 220.385C489.626 219.261 489.241 218.313 488.469 217.541C487.697 216.756 486.749 216.364 485.626 216.364C484.502 216.364 483.554 216.756 482.783 217.541C482.011 218.313 481.625 219.261 481.625 220.385C481.625 221.508 482.011 222.463 482.783 223.248ZM498.131 215.064C499.363 215.064 500.331 215.443 501.035 216.201C501.752 216.946 502.111 217.954 502.111 219.227V225.461H500.771V219.227C500.771 218.32 500.527 217.616 500.04 217.115C499.566 216.614 498.889 216.364 498.009 216.364C497.034 216.364 496.242 216.675 495.633 217.298C495.024 217.907 494.719 218.855 494.719 220.141V225.461H493.379V215.308H494.719V216.892C495.477 215.673 496.614 215.064 498.131 215.064Z" fill="black" fill-opacity="0.87"/>
<rect x="275.846" y="185.589" width="62.0513" height="62.0513" rx="31.0256" fill="white"/>
<rect x="302.923" y="202.513" width="7.89744" height="7.89744" rx="3.94872" stroke="black" stroke-opacity="0.87" stroke-width="1.12821"/>
<rect x="316.462" y="222.82" width="7.89744" height="7.89744" rx="3.94872" stroke="black" stroke-opacity="0.87" stroke-width="1.12821"/>
<rect x="289.385" y="222.82" width="7.89744" height="7.89744" rx="3.94872" stroke="black" stroke-opacity="0.87" stroke-width="1.12821"/>
<line x1="308.452" y1="209.508" x2="318.605" y2="223.046" stroke="black" stroke-width="1.12821"/>
<line x1="305.067" y1="210.185" x2="294.913" y2="223.723" stroke="black" stroke-width="1.12821"/>
<rect x="310.821" y="230.718" width="7.89744" height="7.89744" rx="3.94872" transform="rotate(-180 310.821 230.718)" stroke="black" stroke-opacity="0.87" stroke-width="1.12821"/>
<rect x="297.282" y="210.41" width="7.89744" height="7.89744" rx="3.94872" transform="rotate(-180 297.282 210.41)" stroke="black" stroke-opacity="0.87" stroke-width="1.12821"/>
<rect x="324.359" y="210.41" width="7.89744" height="7.89744" rx="3.94872" transform="rotate(-180 324.359 210.41)" stroke="black" stroke-opacity="0.87" stroke-width="1.12821"/>
<line x1="305.293" y1="223.723" x2="295.139" y2="210.184" stroke="black" stroke-width="1.12821"/>
<line x1="308.677" y1="223.046" x2="318.831" y2="209.507" stroke="black" stroke-width="1.12821"/>
<rect x="275.846" y="185.589" width="62.0513" height="62.0513" rx="31.0256" stroke="url(#paint9_linear)" stroke-width="1.12821"/>
<path d="M408.41 122.795H409.751V137.01H408.41V130.959C407.476 132.448 406.109 133.192 404.308 133.192C402.86 133.192 401.621 132.678 400.592 131.649C399.577 130.62 399.069 129.361 399.069 127.872C399.069 126.383 399.577 125.123 400.592 124.095C401.621 123.066 402.86 122.551 404.308 122.551C406.109 122.551 407.476 123.296 408.41 124.785V122.795ZM401.567 130.735C402.338 131.507 403.286 131.893 404.41 131.893C405.534 131.893 406.481 131.507 407.253 130.735C408.025 129.95 408.41 128.995 408.41 127.872C408.41 126.748 408.025 125.8 407.253 125.029C406.481 124.243 405.534 123.851 404.41 123.851C403.286 123.851 402.338 124.243 401.567 125.029C400.795 125.8 400.409 126.748 400.409 127.872C400.409 128.995 400.795 129.95 401.567 130.735ZM419.906 122.795H421.246V132.949H419.906V131.365C419.148 132.583 418.011 133.192 416.494 133.192C415.262 133.192 414.288 132.82 413.57 132.075C412.866 131.317 412.514 130.302 412.514 129.029V122.795H413.854V129.029C413.854 129.936 414.091 130.64 414.565 131.141C415.053 131.642 415.736 131.893 416.616 131.893C417.591 131.893 418.383 131.588 418.992 130.979C419.602 130.356 419.906 129.402 419.906 128.115V122.795ZM425.612 120.358C425.422 120.548 425.192 120.642 424.921 120.642C424.65 120.642 424.42 120.548 424.231 120.358C424.041 120.168 423.946 119.938 423.946 119.667C423.946 119.397 424.041 119.167 424.231 118.977C424.42 118.787 424.65 118.693 424.921 118.693C425.192 118.693 425.422 118.787 425.612 118.977C425.801 119.167 425.896 119.397 425.896 119.667C425.896 119.938 425.801 120.168 425.612 120.358ZM424.251 132.949V122.795H425.591V132.949H424.251ZM433.336 133.192C431.807 133.192 430.534 132.685 429.519 131.669C428.503 130.64 427.995 129.375 427.995 127.872C427.995 126.369 428.503 125.11 429.519 124.095C430.534 123.066 431.807 122.551 433.336 122.551C434.338 122.551 435.239 122.795 436.037 123.282C436.836 123.756 437.418 124.399 437.784 125.211L436.687 125.841C436.416 125.232 435.976 124.751 435.367 124.399C434.771 124.034 434.095 123.851 433.336 123.851C432.213 123.851 431.265 124.243 430.493 125.029C429.722 125.8 429.336 126.748 429.336 127.872C429.336 128.995 429.722 129.95 430.493 130.735C431.265 131.507 432.213 131.893 433.336 131.893C434.095 131.893 434.771 131.717 435.367 131.365C435.963 130.999 436.43 130.512 436.768 129.903L437.885 130.552C437.466 131.365 436.85 132.008 436.037 132.482C435.225 132.955 434.325 133.192 433.336 133.192ZM448.183 132.949H446.396L441.319 128.055V132.949H439.979V118.733H441.319V127.283L446.152 122.795H447.98L442.741 127.669L448.183 132.949ZM460.811 124.095H457.886V130.248C457.886 130.803 457.995 131.202 458.211 131.446C458.428 131.676 458.753 131.798 459.186 131.811C459.619 131.811 460.161 131.798 460.811 131.771V132.949C459.389 133.165 458.32 133.064 457.602 132.644C456.898 132.224 456.546 131.426 456.546 130.248V124.095H454.414V122.795H456.546V120.358L457.886 119.952V122.795H460.811V124.095ZM464.554 124.48C465.177 123.248 466.246 122.632 467.763 122.632V123.932C466.842 123.932 466.077 124.203 465.468 124.744C464.859 125.286 464.554 126.139 464.554 127.303V132.949H463.214V122.795H464.554V124.48ZM477.886 122.795H479.227V132.949H477.886V130.959C476.952 132.448 475.585 133.192 473.784 133.192C472.336 133.192 471.097 132.678 470.068 131.649C469.052 130.62 468.545 129.361 468.545 127.872C468.545 126.383 469.052 125.123 470.068 124.095C471.097 123.066 472.336 122.551 473.784 122.551C475.585 122.551 476.952 123.296 477.886 124.785V122.795ZM471.043 130.735C471.814 131.507 472.762 131.893 473.886 131.893C475.009 131.893 475.957 131.507 476.729 130.735C477.5 129.95 477.886 128.995 477.886 127.872C477.886 126.748 477.5 125.8 476.729 125.029C475.957 124.243 475.009 123.851 473.886 123.851C472.762 123.851 471.814 124.243 471.043 125.029C470.271 125.8 469.885 126.748 469.885 127.872C469.885 128.995 470.271 129.95 471.043 130.735ZM486.986 122.551C488.218 122.551 489.186 122.93 489.89 123.688C490.607 124.433 490.966 125.442 490.966 126.714V132.949H489.626V126.714C489.626 125.807 489.382 125.103 488.895 124.602C488.421 124.101 487.744 123.851 486.864 123.851C485.889 123.851 485.097 124.162 484.488 124.785C483.879 125.394 483.574 126.342 483.574 127.628V132.949H482.234V122.795H483.574V124.379C484.332 123.16 485.469 122.551 486.986 122.551ZM494.783 125.455C494.783 125.915 494.986 126.281 495.392 126.552C495.798 126.823 496.292 127.032 496.874 127.181C497.457 127.33 498.039 127.499 498.621 127.689C499.203 127.865 499.697 128.17 500.103 128.603C500.51 129.023 500.713 129.578 500.713 130.268C500.713 131.135 500.367 131.839 499.677 132.38C499 132.922 498.12 133.192 497.037 133.192C496.062 133.192 495.23 132.976 494.539 132.543C493.862 132.109 493.388 131.547 493.118 130.857L494.255 130.187C494.444 130.715 494.783 131.135 495.27 131.446C495.771 131.744 496.36 131.893 497.037 131.893C497.7 131.893 498.255 131.764 498.702 131.507C499.149 131.236 499.372 130.823 499.372 130.268C499.372 129.808 499.169 129.442 498.763 129.171C498.357 128.901 497.863 128.691 497.281 128.542C496.698 128.393 496.116 128.231 495.534 128.055C494.952 127.865 494.458 127.56 494.052 127.141C493.646 126.707 493.442 126.146 493.442 125.455C493.442 124.629 493.767 123.939 494.417 123.384C495.081 122.829 495.913 122.551 496.915 122.551C497.741 122.551 498.465 122.741 499.088 123.12C499.711 123.485 500.171 123.986 500.469 124.623L499.352 125.272C498.959 124.325 498.147 123.851 496.915 123.851C496.333 123.851 495.832 123.993 495.412 124.277C494.993 124.548 494.783 124.941 494.783 125.455ZM511.553 122.795H512.893V132.949H511.553V130.959C510.618 132.448 509.251 133.192 507.45 133.192C506.002 133.192 504.763 132.678 503.734 131.649C502.719 130.62 502.211 129.361 502.211 127.872C502.211 126.383 502.719 125.123 503.734 124.095C504.763 123.066 506.002 122.551 507.45 122.551C509.251 122.551 510.618 123.296 511.553 124.785V122.795ZM504.709 130.735C505.481 131.507 506.428 131.893 507.552 131.893C508.676 131.893 509.623 131.507 510.395 130.735C511.167 129.95 511.553 128.995 511.553 127.872C511.553 126.748 511.167 125.8 510.395 125.029C509.623 124.243 508.676 123.851 507.552 123.851C506.428 123.851 505.481 124.243 504.709 125.029C503.937 125.8 503.551 126.748 503.551 127.872C503.551 128.995 503.937 129.95 504.709 130.735ZM520.632 133.192C519.102 133.192 517.829 132.685 516.814 131.669C515.798 130.64 515.291 129.375 515.291 127.872C515.291 126.369 515.798 125.11 516.814 124.095C517.829 123.066 519.102 122.551 520.632 122.551C521.634 122.551 522.534 122.795 523.333 123.282C524.131 123.756 524.714 124.399 525.079 125.211L523.982 125.841C523.712 125.232 523.272 124.751 522.662 124.399C522.067 124.034 521.39 123.851 520.632 123.851C519.508 123.851 518.56 124.243 517.789 125.029C517.017 125.8 516.631 126.748 516.631 127.872C516.631 128.995 517.017 129.95 517.789 130.735C518.56 131.507 519.508 131.893 520.632 131.893C521.39 131.893 522.067 131.717 522.662 131.365C523.258 130.999 523.725 130.512 524.064 129.903L525.181 130.552C524.761 131.365 524.145 132.008 523.333 132.482C522.52 132.955 521.62 133.192 520.632 133.192ZM532.656 124.095H529.731V130.248C529.731 130.803 529.84 131.202 530.056 131.446C530.273 131.676 530.598 131.798 531.031 131.811C531.464 131.811 532.006 131.798 532.656 131.771V132.949C531.234 133.165 530.165 133.064 529.447 132.644C528.743 132.224 528.391 131.426 528.391 130.248V124.095H526.259V122.795H528.391V120.358L529.731 119.952V122.795H532.656V124.095ZM536.419 120.358C536.23 120.548 536 120.642 535.729 120.642C535.458 120.642 535.228 120.548 535.038 120.358C534.849 120.168 534.754 119.938 534.754 119.667C534.754 119.397 534.849 119.167 535.038 118.977C535.228 118.787 535.458 118.693 535.729 118.693C536 118.693 536.23 118.787 536.419 118.977C536.609 119.167 536.704 119.397 536.704 119.667C536.704 119.938 536.609 120.168 536.419 120.358ZM535.059 132.949V122.795H536.399V132.949H535.059ZM547.921 131.669C546.893 132.685 545.633 133.192 544.144 133.192C542.655 133.192 541.389 132.685 540.347 131.669C539.318 130.64 538.803 129.375 538.803 127.872C538.803 126.369 539.318 125.11 540.347 124.095C541.389 123.066 542.655 122.551 544.144 122.551C545.633 122.551 546.893 123.066 547.921 124.095C548.964 125.11 549.485 126.369 549.485 127.872C549.485 129.375 548.964 130.64 547.921 131.669ZM541.301 130.735C542.073 131.507 543.021 131.893 544.144 131.893C545.268 131.893 546.216 131.507 546.987 130.735C547.759 129.95 548.145 128.995 548.145 127.872C548.145 126.748 547.759 125.8 546.987 125.029C546.216 124.243 545.268 123.851 544.144 123.851C543.021 123.851 542.073 124.243 541.301 125.029C540.529 125.8 540.144 126.748 540.144 127.872C540.144 128.995 540.529 129.95 541.301 130.735ZM556.649 122.551C557.881 122.551 558.849 122.93 559.553 123.688C560.271 124.433 560.63 125.442 560.63 126.714V132.949H559.289V126.714C559.289 125.807 559.046 125.103 558.558 124.602C558.084 124.101 557.407 123.851 556.527 123.851C555.553 123.851 554.761 124.162 554.151 124.785C553.542 125.394 553.238 126.342 553.238 127.628V132.949H551.897V122.795H553.238V124.379C553.996 123.16 555.133 122.551 556.649 122.551ZM564.446 125.455C564.446 125.915 564.649 126.281 565.056 126.552C565.462 126.823 565.956 127.032 566.538 127.181C567.12 127.33 567.702 127.499 568.285 127.689C568.867 127.865 569.361 128.17 569.767 128.603C570.173 129.023 570.376 129.578 570.376 130.268C570.376 131.135 570.031 131.839 569.341 132.38C568.664 132.922 567.784 133.192 566.701 133.192C565.726 133.192 564.893 132.976 564.203 132.543C563.526 132.109 563.052 131.547 562.781 130.857L563.918 130.187C564.108 130.715 564.446 131.135 564.934 131.446C565.435 131.744 566.024 131.893 566.701 131.893C567.364 131.893 567.919 131.764 568.366 131.507C568.813 131.236 569.036 130.823 569.036 130.268C569.036 129.808 568.833 129.442 568.427 129.171C568.021 128.901 567.526 128.691 566.944 128.542C566.362 128.393 565.78 128.231 565.198 128.055C564.616 127.865 564.121 127.56 563.715 127.141C563.309 126.707 563.106 126.146 563.106 125.455C563.106 124.629 563.431 123.939 564.081 123.384C564.744 122.829 565.577 122.551 566.579 122.551C567.405 122.551 568.129 122.741 568.752 123.12C569.374 123.485 569.835 123.986 570.133 124.623L569.016 125.272C568.623 124.325 567.811 123.851 566.579 123.851C565.997 123.851 565.496 123.993 565.076 124.277C564.656 124.548 564.446 124.941 564.446 125.455Z" fill="black" fill-opacity="0.87"/>
<rect x="324.359" y="93.0768" width="62.0513" height="62.0513" rx="31.0256" fill="white"/>
<g clip-path="url(#clip0)">
<path d="M365.539 115.077H345.231C343.985 115.077 342.975 116.087 342.975 117.333V130.872C342.975 132.118 343.985 133.128 345.231 133.128H365.539C366.785 133.128 367.795 132.118 367.795 130.872V117.333C367.795 116.087 366.785 115.077 365.539 115.077Z" stroke="black" stroke-width="1.12821" stroke-linecap="round" stroke-linejoin="round"/>
<path d="M342.975 121.846H367.795" stroke="black" stroke-width="1.12821" stroke-linecap="round" stroke-linejoin="round"/>
</g>
<rect x="324.359" y="93.0768" width="62.0513" height="62.0513" rx="31.0256" stroke="url(#paint10_linear)" stroke-width="1.12821"/>
<defs>
<linearGradient id="paint0_linear" x1="219.009" y1="132.506" x2="246.919" y2="132.506" gradientUnits="userSpaceOnUse">
<stop stop-color="#00F5A0"/>
<stop offset="1" stop-color="#00D9F5"/>
</linearGradient>
<linearGradient id="paint1_linear" x1="219.009" y1="132.506" x2="246.919" y2="132.506" gradientUnits="userSpaceOnUse">
<stop stop-color="#00F5A0"/>
<stop offset="1" stop-color="#00D9F5"/>
</linearGradient>
<linearGradient id="paint2_linear" x1="190.667" y1="138.197" x2="247.077" y2="138.197" gradientUnits="userSpaceOnUse">
<stop stop-color="#00F5A0"/>
<stop offset="1" stop-color="#00D9F5"/>
</linearGradient>
<linearGradient id="paint3_linear" x1="162.462" y1="145.245" x2="247.077" y2="145.245" gradientUnits="userSpaceOnUse">
<stop stop-color="#00F5A0"/>
<stop offset="1" stop-color="#00D9F5"/>
</linearGradient>
<linearGradient id="paint4_linear" x1="134.257" y1="152.292" x2="247.077" y2="152.292" gradientUnits="userSpaceOnUse">
<stop stop-color="#00F5A0"/>
<stop offset="1" stop-color="#00D9F5"/>
</linearGradient>
<linearGradient id="paint5_linear" x1="155.692" y1="39.4828" x2="187.282" y2="39.4828" gradientUnits="userSpaceOnUse">
<stop stop-color="#00F5A0"/>
<stop offset="1" stop-color="#00D9F5"/>
</linearGradient>
<linearGradient id="paint6_linear" x1="108.308" y1="129.739" x2="139.897" y2="129.739" gradientUnits="userSpaceOnUse">
<stop stop-color="#00F5A0"/>
<stop offset="1" stop-color="#00D9F5"/>
</linearGradient>
<linearGradient id="paint7_linear" x1="275.282" y1="39.4828" x2="306.872" y2="39.4828" gradientUnits="userSpaceOnUse">
<stop stop-color="#00F5A0"/>
<stop offset="1" stop-color="#00D9F5"/>
</linearGradient>
<linearGradient id="paint8_linear" x1="155.692" y1="224.509" x2="187.282" y2="224.509" gradientUnits="userSpaceOnUse">
<stop stop-color="#00F5A0"/>
<stop offset="1" stop-color="#00D9F5"/>
</linearGradient>
<linearGradient id="paint9_linear" x1="275.282" y1="224.508" x2="306.872" y2="224.508" gradientUnits="userSpaceOnUse">
<stop stop-color="#00F5A0"/>
<stop offset="1" stop-color="#00D9F5"/>
</linearGradient>
<linearGradient id="paint10_linear" x1="323.795" y1="131.995" x2="355.385" y2="131.995" gradientUnits="userSpaceOnUse">
<stop stop-color="#00F5A0"/>
<stop offset="1" stop-color="#00D9F5"/>
</linearGradient>
<clipPath id="clip0">
<rect width="27.0769" height="27.0769" fill="white" transform="translate(341.846 110.564)"/>
</clipPath>
</defs>
</svg>
