<svg width="278" height="278" viewBox="0 0 278 278" fill="none" xmlns="http://www.w3.org/2000/svg">
<path d="M103.038 188.082V111.113L112.249 115.761V188.135L103.038 188.082ZM134.484 204.814V128.456L143.695 128.615V204.814H134.484ZM76.3301 174.218V104.234L85.5945 99.7984V172.173L76.3301 174.218ZM137.336 136.875L77.4683 108.085L88.2414 103.145L141.333 128.536L137.362 136.875H137.336ZM197.038 112.149L135.41 77.4885L139.09 69.0426L201.545 104.074L197.065 112.149H197.038ZM139.407 208.958L76.3301 174.377L80.8034 166.296L143.417 200.644L139.407 208.958ZM83.5034 110.794L76.3301 104.234L139.09 69.202L143.47 77.4819L83.5034 110.794ZM192.452 173.873V107.288L201.664 104.101V173.899L192.452 173.873ZM139.685 174.41L135.45 166.204L194.888 135.341L199.123 143.555L139.685 174.437V174.41ZM137.7 138.21L133.73 129.87L194.61 100.515L198.58 108.855L137.7 138.21ZM139.414 208.931L135.384 200.611L195.649 166.569L201.671 173.713L139.414 208.904V208.931Z" fill="url(#paint0_linear)"/>
<rect x="1" y="1" width="276" height="276" rx="138" stroke="black" stroke-opacity="0.1" stroke-width="2"/>
<defs>
<linearGradient id="paint0_linear" x1="70.6328" y1="139" x2="207.368" y2="139" gradientUnits="userSpaceOnUse">
<stop stop-color="#30AD8E"/>
<stop offset="1" stop-color="#6ADFBE"/>
</linearGradient>
</defs>
</svg>
