<svg width="163" height="40" viewBox="0 0 163 40" fill="none" xmlns="http://www.w3.org/2000/svg">
<path d="M7.67098 34.0319V12.0273L10.3167 13.3561V34.0471L7.67098 34.0319ZM16.7028 38.8155V16.9856L19.3485 17.0311V38.8155H16.7028ZM0 30.0683V10.0607L2.66089 8.79271V29.4837L0 30.0683ZM17.522 19.3926L0.32691 11.1617L3.42115 9.74943L18.67 17.0084L17.5296 19.3926H17.522ZM34.6696 12.3235L16.9689 2.41458L18.0257 0L35.9639 10.0152L34.6772 12.3235H34.6696ZM18.1169 40L0 30.1139L1.28483 27.8037L19.2687 37.6234L18.1169 40ZM2.06029 11.9362L0 10.0607L18.0257 0.0455581L19.2839 2.41268L2.06029 11.9362ZM33.3524 29.9696V10.9339L35.9981 10.0228V29.9772L33.3524 29.9696ZM18.1967 30.1234L16.9803 27.7771L34.0518 18.9541L35.2683 21.3022L18.1967 30.131V30.1234ZM17.6265 19.7741L16.4861 17.3899L33.972 8.99772L35.1124 11.3819L17.6265 19.7741ZM18.1188 39.9924L16.9613 37.6139L34.2704 27.8815L36 29.9241L18.1188 39.9848V39.9924Z" fill="url(#paint0_linear)"/>
<path d="M54.56 13V15.64H50.78V27H48.02V15.64H44.26V13H54.56ZM64.7108 19.74C65.9374 20.4467 66.5508 21.5133 66.5508 22.94C66.5508 24.1267 66.1308 25.1 65.2908 25.86C64.4508 26.62 63.4174 27 62.1908 27H56.2508V13H61.7708C62.9708 13 63.9774 13.3733 64.7908 14.12C65.6174 14.8533 66.0308 15.7933 66.0308 16.94C66.0308 18.1 65.5908 19.0333 64.7108 19.74ZM61.7708 15.58H59.0108V18.66H61.7708C62.1974 18.66 62.5508 18.5133 62.8308 18.22C63.1241 17.9267 63.2708 17.56 63.2708 17.12C63.2708 16.68 63.1308 16.3133 62.8508 16.02C62.5708 15.7267 62.2108 15.58 61.7708 15.58ZM62.1908 24.42C62.6574 24.42 63.0441 24.2667 63.3508 23.96C63.6574 23.64 63.8108 23.24 63.8108 22.76C63.8108 22.2933 63.6574 21.9067 63.3508 21.6C63.0441 21.28 62.6574 21.12 62.1908 21.12H59.0108V24.42H62.1908ZM75.1502 27.28C73.0435 27.28 71.3035 26.58 69.9302 25.18C68.5568 23.78 67.8702 22.0533 67.8702 20C67.8702 17.9333 68.5568 16.2067 69.9302 14.82C71.3035 13.42 73.0435 12.72 75.1502 12.72C76.4168 12.72 77.5835 13.02 78.6502 13.62C79.7302 14.2067 80.5702 15.0067 81.1702 16.02L78.7902 17.4C78.4435 16.7733 77.9502 16.2867 77.3102 15.94C76.6702 15.58 75.9502 15.4 75.1502 15.4C73.7902 15.4 72.6902 15.8267 71.8502 16.68C71.0235 17.5333 70.6102 18.64 70.6102 20C70.6102 21.3467 71.0235 22.4467 71.8502 23.3C72.6902 24.1533 73.7902 24.58 75.1502 24.58C75.9502 24.58 76.6702 24.4067 77.3102 24.06C77.9635 23.7 78.4568 23.2133 78.7902 22.6L81.1702 23.98C80.5702 24.9933 79.7368 25.8 78.6702 26.4C77.6035 26.9867 76.4302 27.28 75.1502 27.28ZM89.5189 27.28C87.4122 27.28 85.6722 26.58 84.2989 25.18C82.9256 23.78 82.2389 22.0533 82.2389 20C82.2389 17.9333 82.9256 16.2067 84.2989 14.82C85.6722 13.42 87.4122 12.72 89.5189 12.72C90.7856 12.72 91.9522 13.02 93.0189 13.62C94.0989 14.2067 94.9389 15.0067 95.5389 16.02L93.1589 17.4C92.8122 16.7733 92.3189 16.2867 91.6789 15.94C91.0389 15.58 90.3189 15.4 89.5189 15.4C88.1589 15.4 87.0589 15.8267 86.2189 16.68C85.3922 17.5333 84.9789 18.64 84.9789 20C84.9789 21.3467 85.3922 22.4467 86.2189 23.3C87.0589 24.1533 88.1589 24.58 89.5189 24.58C90.3189 24.58 91.0389 24.4067 91.6789 24.06C92.3322 23.7 92.8256 23.2133 93.1589 22.6L95.5389 23.98C94.9389 24.9933 94.1056 25.8 93.0389 26.4C91.9722 26.9867 90.7989 27.28 89.5189 27.28ZM105.611 27L101.691 13H104.591L107.271 23.38L110.191 13H112.551L115.491 23.38L118.171 13H121.071L117.151 27H114.011L111.371 17.76L108.751 27H105.611ZM129.11 17H131.69V27H129.11V25.82C128.336 26.7933 127.25 27.28 125.85 27.28C124.516 27.28 123.37 26.7733 122.41 25.76C121.463 24.7333 120.99 23.48 120.99 22C120.99 20.52 121.463 19.2733 122.41 18.26C123.37 17.2333 124.516 16.72 125.85 16.72C127.25 16.72 128.336 17.2067 129.11 18.18V17ZM124.35 24.04C124.87 24.56 125.53 24.82 126.33 24.82C127.13 24.82 127.79 24.56 128.31 24.04C128.843 23.5067 129.11 22.8267 129.11 22C129.11 21.1733 128.843 20.5 128.31 19.98C127.79 19.4467 127.13 19.18 126.33 19.18C125.53 19.18 124.87 19.4467 124.35 19.98C123.83 20.5 123.57 21.1733 123.57 22C123.57 22.8267 123.83 23.5067 124.35 24.04ZM134.179 27V12.4H136.759V27H134.179ZM139.271 27V12.4H141.851V27H139.271ZM146.542 23.06C146.889 24.3133 147.829 24.94 149.362 24.94C150.349 24.94 151.095 24.6067 151.602 23.94L153.682 25.14C152.695 26.5667 151.242 27.28 149.322 27.28C147.669 27.28 146.342 26.78 145.342 25.78C144.342 24.78 143.842 23.52 143.842 22C143.842 20.4933 144.335 19.24 145.322 18.24C146.309 17.2267 147.575 16.72 149.122 16.72C150.589 16.72 151.795 17.2267 152.742 18.24C153.702 19.2533 154.182 20.5067 154.182 22C154.182 22.3333 154.149 22.6867 154.082 23.06H146.542ZM146.502 21.06H151.602C151.455 20.38 151.149 19.8733 150.682 19.54C150.229 19.2067 149.709 19.04 149.122 19.04C148.429 19.04 147.855 19.22 147.402 19.58C146.949 19.9267 146.649 20.42 146.502 21.06ZM161.56 19.48H159.3V23.64C159.3 23.9867 159.387 24.24 159.56 24.4C159.733 24.56 159.987 24.6533 160.32 24.68C160.653 24.6933 161.067 24.6867 161.56 24.66V27C159.787 27.2 158.533 27.0333 157.8 26.5C157.08 25.9667 156.72 25.0133 156.72 23.64V19.48H154.98V17H156.72V14.98L159.3 14.2V17H161.56V19.48Z" fill="black"/>
<defs>
<linearGradient id="paint0_linear" x1="-1.63636" y1="20" x2="37.6364" y2="20" gradientUnits="userSpaceOnUse">
<stop stop-color="#30AD8E"/>
<stop offset="1" stop-color="#6ADFBE"/>
</linearGradient>
</defs>
</svg>
