<svg width="64" height="64" viewBox="0 0 64 64" fill="none" xmlns="http://www.w3.org/2000/svg">
<path d="M48.431 53.9591L38.0703 43.4425C38.6261 44.0067 38.4294 43.8015 38.0703 43.4425L32.2967 49.2127L25.0184 27.3912L46.8531 34.665L41.1607 40.354C41.9018 41.0947 41.8268 41.0197 41.1607 40.354L51.6025 50.7896L48.431 53.9591Z" fill="#17CFA1"/>
<path d="M20.9668 16.8947C21.8575 16.8947 22.5796 16.1731 22.5796 15.2829V5.61184C22.5796 4.72168 21.8575 4 20.9668 4C20.0761 4 19.354 4.72168 19.354 5.61184V15.2829C19.354 16.1731 20.0761 16.8947 20.9668 16.8947Z" fill="#17CFA1"/>
<path d="M8.4217 10.1371C7.79195 9.50767 6.77071 9.50767 6.14085 10.1371C5.51099 10.7666 5.51099 11.7871 6.14085 12.4166L12.9835 19.2551C13.6133 19.8846 14.6346 19.8846 15.2643 19.2551C15.8942 18.6256 15.8942 17.6051 15.2643 16.9757L8.4217 10.1371Z" fill="#17CFA1"/>
<path d="M12.9835 30.6528L6.14085 37.4913C5.51099 38.1208 5.51099 39.1413 6.14085 39.7707C6.7706 40.4002 7.79195 40.4002 8.4217 39.7707L15.2643 32.9322C15.8942 32.3028 15.8942 31.2823 15.2643 30.6528C14.6345 30.0233 13.6133 30.0233 12.9835 30.6528Z" fill="#17CFA1"/>
<path d="M28.9495 19.2551L35.7922 12.4166C36.422 11.7871 36.422 10.7666 35.7922 10.1371C35.1624 9.50767 34.1412 9.50767 33.5113 10.1371L26.6687 16.9757C26.0388 17.6051 26.0388 18.6256 26.6687 19.2551C27.2984 19.8846 28.3198 19.8846 28.9495 19.2551Z" fill="#17CFA1"/>
<path d="M12.9025 24.9541C12.9025 24.064 12.1804 23.3423 11.2897 23.3423H1.61282C0.722112 23.3423 0 24.064 0 24.9541C0 25.8443 0.722112 26.566 1.61282 26.566H11.2897C12.1804 26.566 12.9025 25.8443 12.9025 24.9541Z" fill="#17CFA1"/>
</svg>
