<svg width="64" height="64" viewBox="0 0 64 64" fill="none" xmlns="http://www.w3.org/2000/svg">
<path d="M8.32148 40.3029C7.91766 41.1838 7.56465 42.0053 7.26396 42.7663L2.81833 34.437L2.78648 34.3774L2.7494 34.3208C2.5263 33.9806 2.42132 33.6414 2.40918 33.2784C2.39147 32.7485 2.45129 32.4848 2.48686 32.3896L2.70764 31.8943C3.44735 30.5718 4.65292 28.5895 6.33698 25.9325L7.15238 24.6459L6.20586 24.0662L13.6281 24.3567L16.88 31.1844L16.4592 30.9217L15.3781 30.2471L14.5376 31.2049C13.1339 32.8045 11.8858 34.4165 10.7956 36.0415C9.72015 37.6445 8.8874 39.0685 8.32148 40.3029ZM11.643 42.602C14.0397 42.8236 18.7213 43.0632 25.6098 43.3265L25.2175 52.923L13.0827 52.0875C12.6893 52.0528 12.2686 51.8828 11.8036 51.4566C11.2842 50.9804 10.9039 50.4489 10.645 49.8573C10.4583 49.3968 10.3379 48.9355 10.2796 48.4706C10.2296 48.0717 10.2509 47.5397 10.3912 46.8496C10.5528 46.0546 10.6773 45.4878 10.7662 45.1331C10.8411 44.8344 11.0461 44.2149 11.4165 43.2155C11.4987 42.9939 11.5744 42.7889 11.643 42.602ZM26.9278 9.56739C27.0126 9.66245 27.0936 9.75304 27.1707 9.839C25.8476 11.8406 23.428 15.8328 19.9428 21.7474L11.6403 16.8637L18.1302 6.62444C18.3559 6.27793 18.7132 5.98145 19.3118 5.77253C19.9836 5.53807 20.6311 5.46124 21.2687 5.52482L21.281 5.52605L21.2933 5.52707C21.6476 5.55651 22.0246 5.64614 22.4283 5.81045C22.8999 6.0024 23.2735 6.19176 23.5621 6.37265C23.8342 6.54316 24.2089 6.83353 24.6955 7.27828C25.2085 7.74723 25.5705 8.09436 25.7969 8.32951C26.0359 8.57774 26.41 8.98654 26.9278 9.56739ZM30.7947 8.01412C30.2138 7.23344 29.6556 6.52721 29.1203 5.89783L38.5738 5.92111L38.6479 5.92129L38.7216 5.91418C39.1229 5.87545 39.4683 5.94179 39.7932 6.1038C40.2553 6.33418 40.4665 6.51607 40.5467 6.60786L40.8504 7.0208C41.6717 8.30497 42.8602 10.3152 44.423 13.0689L45.1719 14.3886L46.1156 13.8385L42.3614 20.1854L34.8174 19.8263L35.2233 19.5958L36.3446 18.959L35.8832 17.7548C35.1263 15.779 34.2884 13.9286 33.3682 12.2053C32.4604 10.5053 31.603 9.10047 30.7947 8.01412ZM49.32 38.6163C49.1972 38.6478 49.0809 38.6776 48.9712 38.7058C47.7999 36.5954 45.3464 32.6061 41.6638 26.803L49.8471 21.7193L55.9393 32.121C56.1863 32.6473 56.2592 33.1524 56.186 33.6694C56.0985 34.2883 55.8806 34.8847 55.5148 35.4678C55.3208 35.7633 55.0653 36.0525 54.7352 36.3324C54.3476 36.6609 53.9992 36.9144 53.6895 37.1032C53.4188 37.2681 52.9968 37.466 52.3862 37.6855C51.7325 37.9206 51.2523 38.083 50.9324 38.1797C50.607 38.278 50.0749 38.4227 49.32 38.6163ZM47.3999 42.9234C48.9731 42.7707 50.3522 42.5659 51.5144 42.2973L47.162 50.5848L47.1305 50.6447L47.1046 50.7073C46.9477 51.0854 46.7258 51.3592 46.4336 51.5674C45.9959 51.8791 45.7453 51.9578 45.6567 51.9718L45.6108 51.979L45.5655 51.989L45.0695 52.099C43.5783 52.2417 41.275 52.3672 38.137 52.4729L36.6149 52.5242L36.6694 53.6388L32.7265 47.3652L36.539 40.8428L36.5588 41.3292L36.6119 42.6393L37.9174 42.7618C41.6532 43.1124 44.8223 43.1736 47.3999 42.9234Z" stroke="#17CFA1" stroke-width="3"/>
</svg>
