<svg width="56" height="56" viewBox="0 0 56 56" fill="none" xmlns="http://www.w3.org/2000/svg">
<path d="M51.8637 44.2834L37.2162 39.482V34.4291C38.2622 32.8828 38.9675 31.0634 39.2163 29.0938H41.86C44.1686 29.0938 46.0469 27.2155 46.0469 24.9068V20.4224C46.0469 19.5485 45.7774 18.7366 45.3177 18.0646V17.3177C45.3177 7.76869 37.549 0 28 0C18.451 0 10.6823 7.76869 10.6823 17.3177V18.0646C10.2226 18.7367 9.95312 19.5486 9.95312 20.4224V24.9068C9.95312 27.2155 11.8314 29.0938 14.1401 29.0938H16.7838C17.0361 31.0907 17.758 32.933 18.8281 34.493V39.4675L4.13623 44.2834C1.66228 45.0946 0 47.3888 0 49.9922V56H56V49.9922C56 47.3888 54.3377 45.0946 51.8637 44.2834ZM22.1094 37.6989C23.8264 38.8079 25.8437 39.448 28 39.448C30.175 39.448 32.2083 38.7965 33.9349 37.6698V39.9339C32.6892 41.0075 30.1757 42.7813 28 42.7813C25.8283 42.7813 23.3399 41.0106 22.1094 39.9392V37.6989ZM36.035 19.1616C33.6573 18.7395 31.8455 16.6591 31.8455 14.1621H28.5643C28.5643 16.9627 26.2858 19.2412 23.4851 19.2412H19.965V17.6599C19.965 13.2295 23.5694 9.625 28 9.625C32.4306 9.625 36.035 13.2295 36.035 17.6599V19.1616ZM19.965 22.6368V22.5226H23.4851C26.2358 22.5226 28.6804 21.1874 30.2049 19.131C31.5629 20.9628 33.6509 22.2223 36.035 22.4756V27.508C36.035 28.1528 35.9672 28.7805 35.8426 29.3855H29.8829V32.6667H34.4491C32.9832 34.7891 30.6383 36.1667 28.0001 36.1667C23.5697 36.1667 19.9651 32.2825 19.9651 27.508L19.965 22.6368ZM42.7656 24.9068C42.7656 25.4062 42.3593 25.8125 41.8599 25.8125H39.3163V19.5167H41.8599C42.3593 19.5167 42.7656 19.923 42.7656 20.4224V24.9068ZM28 3.28125C35.3768 3.28125 41.4427 9.00123 41.9954 16.2388C41.9503 16.2374 41.9054 16.2354 41.8599 16.2354H39.2268C38.5242 10.6656 33.7574 6.34375 28 6.34375C22.2426 6.34375 17.4758 10.6656 16.7731 16.2354H14.14C14.0946 16.2354 14.0495 16.2374 14.0045 16.2388C14.5573 9.00123 20.6232 3.28125 28 3.28125ZM13.2344 24.9068V20.4224C13.2344 19.923 13.6407 19.5167 14.1401 19.5167H16.6837V25.8125H14.1401C13.6407 25.8125 13.2344 25.4062 13.2344 24.9068ZM52.7188 52.7188H41.4218H14.5782H11.2969H3.28125V49.9922C3.28125 48.8107 4.03561 47.7695 5.15845 47.4015L20.0742 42.5121C21.4896 43.7192 24.6658 46.0625 28.0001 46.0625C31.3273 46.0625 34.5237 43.727 35.9528 42.521L50.8417 47.4016C51.9644 47.7695 52.7188 48.8108 52.7188 49.9922V52.7188Z" fill="#17CFA1"/>
</svg>
